<?xml version="1.0" encoding="UTF-8"?>
<svg id="Layer_1" data-name="Layer 1" xmlns="http://www.w3.org/2000/svg" xmlns:xlink="http://www.w3.org/1999/xlink" viewBox="0 0 554.702 200.527">
  <defs>
    <style>
      .cls-1 {
        fill: url(#linear-gradient);
      }

      .cls-2 {
        fill: #fff;
      }

      .cls-3 {
        fill: #36364c;
      }

      .cls-4 {
        fill: url(#linear-gradient-3);
      }

      .cls-5 {
        fill: url(#linear-gradient-4);
      }

      .cls-6 {
        fill: url(#linear-gradient-2);
      }

      .cls-7 {
        fill: url(#linear-gradient-6);
      }

      .cls-8 {
        fill: url(#linear-gradient-5);
      }
    </style>
    <linearGradient id="linear-gradient" x1="-1.439" y1="115.878" x2="71.072" y2="188.389" gradientUnits="userSpaceOnUse">
      <stop offset="0" stop-color="#f6b867"/>
      <stop offset="1" stop-color="#ea828a"/>
    </linearGradient>
    <linearGradient id="linear-gradient-2" x1="18.622" y1="40.312" x2="51.543" y2="73.233" gradientUnits="userSpaceOnUse">
      <stop offset="0" stop-color="#c6db63"/>
      <stop offset="1" stop-color="#86c664"/>
    </linearGradient>
    <linearGradient id="linear-gradient-3" x1="16.389" y1="77.076" x2="68.5" y2="110.917" gradientUnits="userSpaceOnUse">
      <stop offset="0" stop-color="#00c9de"/>
      <stop offset="1" stop-color="#008fb7"/>
    </linearGradient>
    <linearGradient id="linear-gradient-4" x1="46.795" y1="188.389" x2="119.306" y2="115.878" gradientUnits="userSpaceOnUse">
      <stop offset="0" stop-color="#d86e6a"/>
      <stop offset="1" stop-color="#d64a8b"/>
    </linearGradient>
    <linearGradient id="linear-gradient-5" x1="41.727" y1="17.206" x2="122.351" y2="97.829" gradientUnits="userSpaceOnUse">
      <stop offset="0" stop-color="#9db354"/>
      <stop offset="1" stop-color="#519156"/>
    </linearGradient>
    <linearGradient id="linear-gradient-6" x1="43.806" y1="92.12" x2="100.554" y2="128.972" gradientUnits="userSpaceOnUse">
      <stop offset="0" stop-color="#047496"/>
      <stop offset="1" stop-color="#05557c"/>
    </linearGradient>
  </defs>
  <g>
    <polygon class="cls-1" points="0 114.439 58.934 200.527 58.934 151.974 0 114.439"/>
    <polygon class="cls-6" points="58.934 68.638 58.934 0 0 102.312 58.934 68.825 58.934 68.638"/>
    <polygon class="cls-4" points="58.934 68.825 0 102.312 58.934 139.847 58.934 68.825"/>
    <polygon class="cls-5" points="58.934 200.527 117.867 114.439 58.934 151.974 58.934 200.527"/>
    <polygon class="cls-8" points="58.934 68.825 117.867 102.312 58.934 0 58.934 68.638 58.934 68.825"/>
    <polygon class="cls-7" points="58.934 139.847 117.867 102.312 58.934 68.825 58.934 139.847"/>
  </g>
  <g>
    <rect class="cls-3" x="153.838" y="131.252" width="400.864" height="46.848"/>
    <path class="cls-2" d="m177.799,161.933c-.045-.089-.041-.203.01-.342l4.788-13.281c.05-.126.104-.215.161-.266.057-.05.155-.076.295-.076h2.375c.266,0,.443.127.531.38l4.75,13.262c.038.102.038.203,0,.304s-.107.152-.209.152h-2.299c-.178,0-.291-.082-.342-.247l-1.102-3.078c-.014-.063-.035-.11-.067-.142-.031-.032-.092-.048-.18-.048h-4.94c-.114,0-.189.057-.228.171l-1.141,3.116c-.013.076-.047.133-.104.171-.057.038-.136.057-.237.057h-1.843c-.102,0-.175-.044-.219-.133Zm8.047-5.529c.164,0,.215-.101.151-.304l-1.823-5.073c-.038-.088-.083-.133-.134-.133s-.095.051-.133.152l-1.843,5.054c-.076.203-.025.304.152.304h3.629Z"/>
    <path class="cls-2" d="m193.959,161.724v-9.405c0-.215.088-.323.266-.323h1.9c.164,0,.247.095.247.285v.988c0,.076.019.124.057.143.038.019.089-.003.152-.067.367-.316.722-.589,1.063-.817s.696-.405,1.064-.532c.367-.126.766-.19,1.196-.19.938,0,1.676.269,2.214.807.538.539.808,1.251.808,2.138v6.916c0,.266-.133.399-.399.399h-1.748c-.113,0-.196-.025-.246-.076-.051-.05-.076-.139-.076-.266v-6.536c0-.494-.134-.877-.399-1.149s-.665-.409-1.197-.409c-.304,0-.586.047-.845.143-.26.095-.517.237-.77.427-.254.19-.526.431-.817.722v6.764c0,.253-.146.38-.437.38h-1.691c-.229,0-.342-.114-.342-.342Z"/>
    <path class="cls-2" d="m213.567,147.968h9.215c.164,0,.247.095.247.285v1.463c0,.228-.114.342-.342.342h-6.271c-.215,0-.322.088-.322.266v3.325c0,.19.088.285.266.285h4.332c.189,0,.285.095.285.285v1.539c0,.076-.02.133-.058.171-.038.038-.107.057-.209.057h-4.37c-.164,0-.246.076-.246.228v3.534c0,.152.069.228.209.228h6.649c.202,0,.304.088.304.266v1.539c0,.076-.025.143-.075.2-.051.057-.134.085-.247.085h-9.291c-.241,0-.361-.114-.361-.342v-13.433c0-.215.095-.323.285-.323Z"/>
    <path class="cls-2" d="m229.868,153.725c-.127,0-.189.07-.189.209v5.073c0,.494.101.836.304,1.026.202.19.52.285.95.285h1.121c.075,0,.139.025.189.076s.076.114.076.19l-.019.988c0,.203-.121.33-.361.38-.19.025-.412.047-.665.066-.254.019-.504.032-.751.038s-.472.009-.674.009c-.849,0-1.501-.2-1.957-.599s-.685-1.003-.685-1.814v-5.681c0-.164-.075-.247-.228-.247h-1.273c-.215,0-.322-.095-.322-.285v-1.197c0-.164.101-.247.304-.247h1.406c.113,0,.171-.063.171-.19l.247-2.926c.012-.203.101-.304.266-.304h1.691c.177,0,.266.108.266.323v2.907c0,.114.057.171.171.171h2.147c.189,0,.284.089.284.266v1.197c0,.19-.107.285-.322.285h-2.147Z"/>
    <path class="cls-2" d="m235.436,161.724v-13.433c0-.215.095-.323.285-.323h1.881c.164,0,.247.095.247.285v4.94c0,.076.019.121.057.133.038.013.089-.006.152-.057.418-.354.804-.637,1.158-.846s.71-.364,1.064-.465.722-.152,1.102-.152c.976,0,1.723.266,2.242.798.52.532.779,1.26.779,2.185v6.878c0,.266-.133.399-.399.399h-1.748c-.113,0-.196-.025-.246-.076-.051-.05-.076-.139-.076-.266v-6.536c0-.494-.13-.877-.39-1.149s-.655-.409-1.188-.409c-.304,0-.586.047-.846.143-.26.095-.517.237-.77.427-.254.19-.532.431-.836.722v6.764c0,.253-.14.38-.418.38h-1.691c-.24,0-.36-.114-.36-.342Z"/>
    <path class="cls-2" d="m250.426,159.207c.24.412.572.735.997.969.424.235.89.352,1.396.352.52,0,.991-.107,1.416-.323.424-.215.826-.563,1.206-1.045.051-.063.095-.098.133-.104.038-.006.102.016.19.067l1.159.513c.164.076.183.19.057.342-.38.558-.788,1.004-1.226,1.339-.437.336-.919.577-1.444.722s-1.117.218-1.776.218c-.963,0-1.824-.215-2.584-.646-.76-.43-1.358-1.029-1.795-1.795-.438-.766-.656-1.65-.656-2.65,0-1.089.226-2.036.675-2.841.449-.804,1.055-1.425,1.814-1.862s1.596-.655,2.508-.655c.963,0,1.802.209,2.518.627s1.276,1.016,1.682,1.795c.405.779.608,1.726.608,2.84,0,.127-.01.231-.028.313-.02.083-.111.124-.276.124h-6.726c-.076,0-.13.028-.161.085-.032.057-.048.13-.048.219,0,.52.12.985.361,1.396Zm4.142-3.106c.127,0,.212-.016.257-.048.044-.031.066-.104.066-.218,0-.393-.089-.779-.267-1.159-.177-.38-.437-.693-.778-.94s-.761-.371-1.254-.371c-.507,0-.95.124-1.33.371s-.669.577-.865.988-.294.871-.294,1.377h4.465Z"/>
    <path class="cls-2" d="m260.516,161.981c-.051-.057-.076-.143-.076-.256v-9.405c0-.215.088-.323.266-.323h1.843c.178,0,.267.095.267.285v1.159c0,.076.025.124.076.143.05.019.107-.01.171-.085.278-.354.579-.659.902-.912s.652-.447.988-.58c.335-.133.661-.199.979-.199.455,0,.684.101.684.304v1.843c0,.177-.083.247-.247.209-.19-.051-.39-.085-.599-.104s-.402-.029-.579-.029c-.241,0-.497.051-.77.152-.272.101-.522.244-.751.427-.228.184-.411.383-.551.599s-.209.437-.209.665v5.814c0,.253-.146.38-.437.38h-1.691c-.127,0-.216-.028-.266-.085Z"/>
    <path class="cls-2" d="m271.688,159.207c.24.412.572.735.997.969.424.235.89.352,1.396.352.52,0,.991-.107,1.416-.323.424-.215.826-.563,1.206-1.045.051-.063.095-.098.133-.104.038-.006.102.016.19.067l1.159.513c.164.076.183.19.057.342-.38.558-.788,1.004-1.226,1.339-.437.336-.919.577-1.444.722s-1.117.218-1.776.218c-.963,0-1.824-.215-2.584-.646-.76-.43-1.358-1.029-1.795-1.795-.438-.766-.656-1.65-.656-2.65,0-1.089.226-2.036.675-2.841.449-.804,1.055-1.425,1.814-1.862s1.596-.655,2.508-.655c.963,0,1.802.209,2.518.627s1.276,1.016,1.682,1.795c.405.779.608,1.726.608,2.84,0,.127-.01.231-.028.313-.02.083-.111.124-.276.124h-6.726c-.076,0-.13.028-.161.085-.032.057-.048.13-.048.219,0,.52.12.985.361,1.396Zm4.142-3.106c.127,0,.212-.016.257-.048.044-.031.066-.104.066-.218,0-.393-.089-.779-.267-1.159-.177-.38-.437-.693-.778-.94s-.761-.371-1.254-.371c-.507,0-.95.124-1.33.371s-.669.577-.865.988-.294.871-.294,1.377h4.465Z"/>
    <path class="cls-2" d="m286.858,160.09c.399-.24.782-.557,1.149-.95v-6.764c0-.253.14-.38.418-.38h1.729c.228,0,.342.12.342.361l-.038,9.405c0,.203-.089.304-.266.304h-1.862c-.178,0-.267-.095-.267-.285v-.988c0-.076-.016-.124-.047-.143-.032-.019-.079.003-.143.066-.596.558-1.159.954-1.691,1.188-.531.234-1.083.352-1.652.352s-1.077-.121-1.521-.361c-.443-.241-.792-.589-1.045-1.045-.254-.456-.38-.988-.38-1.596v-6.859c0-.266.133-.399.399-.399h1.748c.215,0,.322.12.322.361v6.479c0,.481.137.871.409,1.168.271.298.648.446,1.13.446.443,0,.864-.12,1.264-.361Z"/>
    <path class="cls-2" d="m294.202,161.724v-9.405c0-.215.088-.323.266-.323h1.881c.178,0,.267.095.267.285v.988c0,.076.019.124.057.143.038.019.089-.003.152-.067.354-.316.699-.589,1.035-.817s.684-.408,1.045-.542c.361-.133.744-.199,1.149-.199.709,0,1.292.165,1.748.494.456.33.772.748.95,1.254.025.05.063.069.114.057.05-.012.101-.044.151-.095.329-.33.678-.621,1.045-.874s.748-.453,1.141-.599c.393-.146.785-.218,1.178-.218.899,0,1.608.269,2.128.807.52.539.779,1.27.779,2.195v6.859c0,.266-.133.399-.399.399h-1.748c-.113,0-.196-.025-.247-.076-.051-.05-.075-.139-.075-.266v-6.536c0-.494-.124-.877-.371-1.149s-.617-.409-1.111-.409c-.292,0-.57.057-.836.171-.267.114-.507.25-.722.409-.216.159-.406.32-.57.484-.089.089-.149.174-.181.256-.031.083-.048.181-.048.295v6.422c0,.266-.133.399-.398.399h-1.748c-.102,0-.181-.025-.237-.076-.058-.05-.086-.139-.086-.266v-6.536c0-.494-.123-.877-.37-1.149s-.618-.409-1.111-.409c-.432,0-.827.108-1.188.323-.361.215-.751.538-1.169.969v6.764c0,.253-.146.38-.437.38h-1.691c-.229,0-.342-.114-.342-.342Z"/>
    <path class="cls-2" d="m319.928,147.968h9.062c.165,0,.247.095.247.285l-.019,1.463c0,.228-.108.342-.323.342h-6.118c-.215,0-.322.088-.322.266v3.534c0,.19.088.285.266.285h4.446c.177,0,.266.088.266.266v1.52c0,.165-.089.247-.266.247h-4.466c-.164,0-.246.076-.246.228v5.301c0,.241-.14.361-.419.361h-2.032c-.14,0-.234-.028-.285-.085s-.076-.143-.076-.256v-13.433c0-.215.095-.323.285-.323Z"/>
    <path class="cls-2" d="m332.686,161.591c-.754-.443-1.34-1.054-1.758-1.833-.418-.779-.627-1.668-.627-2.669,0-1.051.219-1.973.656-2.765.437-.792,1.032-1.409,1.786-1.853.753-.443,1.611-.665,2.574-.665,1,0,1.874.225,2.622.674.747.45,1.33,1.07,1.748,1.862.418.792.627,1.701.627,2.727,0,1.014-.213,1.91-.637,2.688-.425.779-1.011,1.39-1.758,1.833-.747.444-1.621.665-2.622.665-.987,0-1.858-.221-2.612-.665Zm4-1.435c.367-.272.646-.671.836-1.197.189-.525.285-1.168.285-1.929,0-.772-.099-1.425-.295-1.957-.196-.532-.479-.937-.846-1.216-.367-.278-.816-.418-1.349-.418-.52,0-.969.14-1.35.418-.38.279-.668.684-.864,1.216-.196.532-.294,1.185-.294,1.957,0,.76.098,1.403.294,1.929.196.526.484.925.864,1.197.381.272.83.409,1.35.409.544,0,1-.136,1.368-.409Z"/>
    <path class="cls-2" d="m348.684,160.09c.399-.24.782-.557,1.149-.95v-6.764c0-.253.14-.38.418-.38h1.729c.228,0,.342.12.342.361l-.038,9.405c0,.203-.089.304-.266.304h-1.862c-.178,0-.267-.095-.267-.285v-.988c0-.076-.016-.124-.047-.143-.032-.019-.079.003-.143.066-.596.558-1.159.954-1.691,1.188-.531.234-1.083.352-1.652.352s-1.077-.121-1.521-.361c-.443-.241-.792-.589-1.045-1.045-.254-.456-.38-.988-.38-1.596v-6.859c0-.266.133-.399.399-.399h1.748c.215,0,.322.12.322.361v6.479c0,.481.137.871.409,1.168.271.298.648.446,1.13.446.443,0,.864-.12,1.264-.361Z"/>
    <path class="cls-2" d="m356.407,161.724v-9.405c0-.215.088-.323.266-.323h1.9c.164,0,.247.095.247.285v.988c0,.076.019.124.057.143.038.019.089-.003.152-.067.367-.316.722-.589,1.063-.817s.696-.405,1.064-.532c.367-.126.766-.19,1.196-.19.938,0,1.676.269,2.214.807.538.539.808,1.251.808,2.138v6.916c0,.266-.133.399-.399.399h-1.748c-.113,0-.196-.025-.246-.076-.051-.05-.076-.139-.076-.266v-6.536c0-.494-.134-.877-.399-1.149s-.665-.409-1.197-.409c-.304,0-.586.047-.845.143-.26.095-.517.237-.77.427-.254.19-.526.431-.817.722v6.764c0,.253-.146.38-.437.38h-1.691c-.229,0-.342-.114-.342-.342Z"/>
    <path class="cls-2" d="m375.398,161.99c-.069-.05-.104-.139-.104-.266v-.627c0-.088-.025-.139-.076-.152-.051-.012-.113.013-.189.076-.178.177-.393.361-.646.551-.253.19-.561.352-.921.485-.361.133-.789.199-1.283.199-.772,0-1.463-.19-2.07-.57-.608-.38-1.09-.95-1.444-1.71-.354-.76-.532-1.71-.532-2.85,0-1.064.188-1.995.561-2.793.374-.798.884-1.418,1.529-1.862.646-.443,1.368-.665,2.166-.665.545,0,1.02.088,1.426.266.405.178.778.425,1.121.741.113.076.196.104.247.085.05-.019.075-.098.075-.237v-4.389c0-.203.089-.304.267-.304h1.919c.189,0,.285.108.285.323v13.414c0,.126-.029.218-.086.275s-.161.085-.313.085h-1.672c-.102,0-.188-.025-.257-.076Zm-1.121-8.274c-.322-.184-.693-.275-1.111-.275-.481,0-.915.133-1.302.399-.386.266-.687.665-.902,1.197-.215.532-.322,1.216-.322,2.052,0,.849.107,1.536.322,2.062.216.526.51.909.884,1.149.373.241.795.361,1.264.361.405,0,.77-.095,1.093-.285.322-.19.579-.431.769-.722.19-.291.285-.583.285-.874v-4.294c-.329-.329-.655-.585-.979-.77Z"/>
    <path class="cls-2" d="m385.211,161.924c-.507.222-1.083.333-1.729.333-.976,0-1.742-.256-2.3-.77-.557-.513-.836-1.181-.836-2.004,0-.696.212-1.302.637-1.814.425-.513,1.036-.915,1.834-1.207.798-.291,1.754-.462,2.869-.513l.949-.057c.076-.013.146-.038.209-.076s.096-.107.096-.209v-.437c0-.557-.165-.991-.494-1.302-.33-.31-.786-.465-1.368-.465-.443,0-.858.098-1.244.294-.387.197-.72.517-.998.959-.038.089-.079.143-.123.162-.045.019-.124.016-.238-.009l-1.614-.399c-.051-.025-.093-.063-.124-.114-.031-.05-.009-.152.066-.304.329-.722.868-1.266,1.615-1.634.747-.367,1.672-.551,2.774-.551.975,0,1.764.133,2.365.399.602.266,1.042.636,1.32,1.111s.418,1.036.418,1.682v6.688c0,.14-.022.237-.066.294-.045.057-.13.085-.257.085h-1.614c-.114,0-.197-.044-.247-.133-.051-.089-.083-.196-.096-.323l-.037-.57c-.026-.215-.146-.222-.361-.019-.431.38-.899.681-1.406.902Zm1.444-4.778l-.779.057c-.405.025-.795.085-1.168.18-.374.095-.703.222-.988.38-.285.159-.513.355-.685.589-.171.234-.256.51-.256.826,0,.431.154.773.465,1.026s.731.38,1.264.38c.342,0,.659-.057.95-.171.291-.114.545-.26.76-.437.216-.177.39-.364.522-.561.134-.196.2-.396.2-.599v-1.349c0-.215-.096-.323-.285-.323Z"/>
    <path class="cls-2" d="m396.383,153.725c-.127,0-.189.07-.189.209v5.073c0,.494.101.836.304,1.026.202.19.52.285.95.285h1.121c.075,0,.139.025.189.076s.076.114.076.19l-.019.988c0,.203-.121.33-.361.38-.19.025-.412.047-.665.066-.254.019-.504.032-.751.038s-.472.009-.674.009c-.849,0-1.501-.2-1.957-.599s-.685-1.003-.685-1.814v-5.681c0-.164-.075-.247-.228-.247h-1.273c-.215,0-.322-.095-.322-.285v-1.197c0-.164.101-.247.304-.247h1.406c.113,0,.171-.063.171-.19l.247-2.926c.012-.203.101-.304.266-.304h1.691c.177,0,.266.108.266.323v2.907c0,.114.057.171.171.171h2.147c.189,0,.284.089.284.266v1.197c0,.19-.107.285-.322.285h-2.147Z"/>
    <path class="cls-2" d="m404.458,150.134c0,.292-.152.437-.456.437h-1.729c-.139,0-.234-.031-.284-.095-.051-.063-.076-.158-.076-.285v-1.862c0-.241.101-.361.304-.361h1.957c.19,0,.285.114.285.342v1.824Zm-.038,11.514c0,.152-.035.26-.104.323-.069.064-.188.095-.352.095h-1.653c-.139,0-.234-.028-.284-.085-.051-.057-.076-.143-.076-.256v-9.405c0-.215.088-.323.266-.323h1.938c.177,0,.266.102.266.304v9.348Z"/>
    <path class="cls-2" d="m410.015,161.591c-.754-.443-1.34-1.054-1.758-1.833-.418-.779-.627-1.668-.627-2.669,0-1.051.219-1.973.656-2.765.437-.792,1.032-1.409,1.786-1.853.753-.443,1.611-.665,2.574-.665,1,0,1.874.225,2.622.674.747.45,1.33,1.07,1.748,1.862.418.792.627,1.701.627,2.727,0,1.014-.213,1.91-.637,2.688-.425.779-1.011,1.39-1.758,1.833-.747.444-1.621.665-2.622.665-.987,0-1.858-.221-2.612-.665Zm4-1.435c.367-.272.646-.671.836-1.197.189-.525.285-1.168.285-1.929,0-.772-.099-1.425-.295-1.957-.196-.532-.479-.937-.846-1.216-.367-.278-.816-.418-1.349-.418-.52,0-.969.14-1.35.418-.38.279-.668.684-.864,1.216-.196.532-.294,1.185-.294,1.957,0,.76.098,1.403.294,1.929.196.526.484.925.864,1.197.381.272.83.409,1.35.409.544,0,1-.136,1.368-.409Z"/>
    <path class="cls-2" d="m420.855,161.724v-9.405c0-.215.088-.323.266-.323h1.9c.164,0,.247.095.247.285v.988c0,.076.019.124.057.143.038.019.089-.003.152-.067.367-.316.722-.589,1.063-.817s.696-.405,1.064-.532c.367-.126.766-.19,1.196-.19.938,0,1.676.269,2.214.807.538.539.808,1.251.808,2.138v6.916c0,.266-.133.399-.399.399h-1.748c-.113,0-.196-.025-.246-.076-.051-.05-.076-.139-.076-.266v-6.536c0-.494-.134-.877-.399-1.149s-.665-.409-1.197-.409c-.304,0-.586.047-.845.143-.26.095-.517.237-.77.427-.254.19-.526.431-.817.722v6.764c0,.253-.146.38-.437.38h-1.691c-.229,0-.342-.114-.342-.342Z"/>
    <path class="cls-2" d="m442.724,147.968c.178,0,.267.102.267.304v13.376c0,.152-.035.26-.104.323-.07.064-.188.095-.352.095h-1.977c-.152,0-.253-.028-.304-.085s-.076-.143-.076-.256v-13.433c0-.215.095-.323.285-.323h2.261Z"/>
    <path class="cls-2" d="m447.018,161.724v-9.405c0-.215.088-.323.266-.323h1.9c.164,0,.247.095.247.285v.988c0,.076.019.124.057.143.038.019.089-.003.152-.067.367-.316.722-.589,1.063-.817s.696-.405,1.064-.532c.367-.126.766-.19,1.196-.19.938,0,1.676.269,2.214.807.538.539.808,1.251.808,2.138v6.916c0,.266-.133.399-.399.399h-1.748c-.113,0-.196-.025-.246-.076-.051-.05-.076-.139-.076-.266v-6.536c0-.494-.134-.877-.399-1.149s-.665-.409-1.197-.409c-.304,0-.586.047-.845.143-.26.095-.517.237-.77.427-.254.19-.526.431-.817.722v6.764c0,.253-.146.38-.437.38h-1.691c-.229,0-.342-.114-.342-.342Z"/>
    <path class="cls-2" d="m462.104,150.134c0,.292-.152.437-.456.437h-1.729c-.139,0-.234-.031-.284-.095-.051-.063-.076-.158-.076-.285v-1.862c0-.241.101-.361.304-.361h1.957c.19,0,.285.114.285.342v1.824Zm-.038,11.514c0,.152-.035.26-.104.323-.069.064-.188.095-.352.095h-1.653c-.139,0-.234-.028-.284-.085-.051-.057-.076-.143-.076-.256v-9.405c0-.215.088-.323.266-.323h1.938c.177,0,.266.102.266.304v9.348Z"/>
    <path class="cls-2" d="m469.475,153.725c-.127,0-.189.07-.189.209v5.073c0,.494.101.836.304,1.026.202.19.52.285.95.285h1.121c.075,0,.139.025.189.076s.076.114.076.19l-.019.988c0,.203-.121.33-.361.38-.19.025-.412.047-.665.066-.254.019-.504.032-.751.038s-.472.009-.674.009c-.849,0-1.501-.2-1.957-.599s-.685-1.003-.685-1.814v-5.681c0-.164-.075-.247-.228-.247h-1.273c-.215,0-.322-.095-.322-.285v-1.197c0-.164.101-.247.304-.247h1.406c.113,0,.171-.063.171-.19l.247-2.926c.012-.203.101-.304.266-.304h1.691c.177,0,.266.108.266.323v2.907c0,.114.057.171.171.171h2.147c.189,0,.284.089.284.266v1.197c0,.19-.107.285-.322.285h-2.147Z"/>
    <path class="cls-2" d="m477.55,150.134c0,.292-.152.437-.456.437h-1.729c-.139,0-.234-.031-.284-.095-.051-.063-.076-.158-.076-.285v-1.862c0-.241.101-.361.304-.361h1.957c.19,0,.285.114.285.342v1.824Zm-.038,11.514c0,.152-.035.26-.104.323-.069.064-.188.095-.352.095h-1.653c-.139,0-.234-.028-.284-.085-.051-.057-.076-.143-.076-.256v-9.405c0-.215.088-.323.266-.323h1.938c.177,0,.266.102.266.304v9.348Z"/>
    <path class="cls-2" d="m486.138,161.924c-.507.222-1.083.333-1.729.333-.976,0-1.742-.256-2.3-.77-.557-.513-.836-1.181-.836-2.004,0-.696.212-1.302.637-1.814.425-.513,1.036-.915,1.834-1.207.798-.291,1.754-.462,2.869-.513l.949-.057c.076-.013.146-.038.209-.076s.096-.107.096-.209v-.437c0-.557-.165-.991-.494-1.302-.33-.31-.786-.465-1.368-.465-.443,0-.858.098-1.244.294-.387.197-.72.517-.998.959-.038.089-.079.143-.123.162-.045.019-.124.016-.238-.009l-1.614-.399c-.051-.025-.093-.063-.124-.114-.031-.05-.009-.152.066-.304.329-.722.868-1.266,1.615-1.634.747-.367,1.672-.551,2.774-.551.975,0,1.764.133,2.365.399.602.266,1.042.636,1.32,1.111s.418,1.036.418,1.682v6.688c0,.14-.022.237-.066.294-.045.057-.13.085-.257.085h-1.614c-.114,0-.197-.044-.247-.133-.051-.089-.083-.196-.096-.323l-.037-.57c-.026-.215-.146-.222-.361-.019-.431.38-.899.681-1.406.902Zm1.444-4.778l-.779.057c-.405.025-.795.085-1.168.18-.374.095-.703.222-.988.38-.285.159-.513.355-.685.589-.171.234-.256.51-.256.826,0,.431.154.773.465,1.026s.731.38,1.264.38c.342,0,.659-.057.95-.171.291-.114.545-.26.76-.437.216-.177.39-.364.522-.561.134-.196.2-.396.2-.599v-1.349c0-.215-.096-.323-.285-.323Z"/>
    <path class="cls-2" d="m498.069,153.725c-.127,0-.189.07-.189.209v5.073c0,.494.101.836.304,1.026.202.19.52.285.95.285h1.121c.075,0,.139.025.189.076s.076.114.076.19l-.019.988c0,.203-.121.33-.361.38-.19.025-.412.047-.665.066-.254.019-.504.032-.751.038s-.472.009-.674.009c-.849,0-1.501-.2-1.957-.599s-.685-1.003-.685-1.814v-5.681c0-.164-.075-.247-.228-.247h-1.273c-.215,0-.322-.095-.322-.285v-1.197c0-.164.101-.247.304-.247h1.406c.113,0,.171-.063.171-.19l.247-2.926c.012-.203.101-.304.266-.304h1.691c.177,0,.266.108.266.323v2.907c0,.114.057.171.171.171h2.147c.189,0,.284.089.284.266v1.197c0,.19-.107.285-.322.285h-2.147Z"/>
    <path class="cls-2" d="m506.145,150.134c0,.292-.152.437-.456.437h-1.729c-.139,0-.234-.031-.284-.095-.051-.063-.076-.158-.076-.285v-1.862c0-.241.101-.361.304-.361h1.957c.19,0,.285.114.285.342v1.824Zm-.038,11.514c0,.152-.035.26-.104.323-.069.064-.188.095-.352.095h-1.653c-.139,0-.234-.028-.284-.085-.051-.057-.076-.143-.076-.256v-9.405c0-.215.088-.323.266-.323h1.938c.177,0,.266.102.266.304v9.348Z"/>
    <path class="cls-2" d="m518.894,152.11c.038.076.038.165,0,.266l-3.781,9.329c-.101.241-.284.361-.551.361h-1.121c-.278,0-.469-.114-.569-.342l-3.781-9.329c-.038-.114-.032-.209.019-.285s.134-.114.247-.114h1.995c.089,0,.168.025.237.076.07.051.117.121.143.209l2.451,6.232c.089.241.19.235.304-.019l2.433-6.232c.038-.076.085-.139.143-.19.057-.05.13-.076.218-.076h1.388c.114,0,.189.038.228.114Z"/>
    <path class="cls-2" d="m523.701,159.207c.24.412.572.735.997.969.424.235.89.352,1.396.352.52,0,.991-.107,1.416-.323.424-.215.826-.563,1.206-1.045.051-.063.095-.098.133-.104.038-.006.102.016.19.067l1.159.513c.164.076.183.19.057.342-.38.558-.788,1.004-1.226,1.339-.437.336-.919.577-1.444.722s-1.117.218-1.776.218c-.963,0-1.824-.215-2.584-.646-.76-.43-1.358-1.029-1.795-1.795-.438-.766-.656-1.65-.656-2.65,0-1.089.226-2.036.675-2.841.449-.804,1.055-1.425,1.814-1.862s1.596-.655,2.508-.655c.963,0,1.802.209,2.518.627s1.276,1.016,1.682,1.795c.405.779.608,1.726.608,2.84,0,.127-.01.231-.028.313-.02.083-.111.124-.276.124h-6.726c-.076,0-.13.028-.161.085-.032.057-.048.13-.048.219,0,.52.12.985.361,1.396Zm4.142-3.106c.127,0,.212-.016.257-.048.044-.031.066-.104.066-.218,0-.393-.089-.779-.267-1.159-.177-.38-.437-.693-.778-.94s-.761-.371-1.254-.371c-.507,0-.95.124-1.33.371s-.669.577-.865.988-.294.871-.294,1.377h4.465Z"/>
  </g>
  <g>
    <path class="cls-3" d="m154.098,28.323h7.436v2.6h.104c1.108-1.109,2.305-1.95,3.588-2.522,1.282-.571,2.738-.857,4.368-.857,1.802,0,3.483.425,5.044,1.273,1.56.851,2.825,2.15,3.796,3.9.97,1.751,1.456,3.926,1.456,6.526v16.64h-7.437v-15.652c0-1.768-.45-3.188-1.352-4.264-.902-1.074-2.202-1.612-3.9-1.612-1.768,0-3.154.512-4.16,1.534-1.006,1.023-1.508,2.436-1.508,4.238v15.756h-7.436v-27.56Z"/>
    <path class="cls-3" d="m187.533,42.155c0-2.878.589-5.426,1.768-7.645,1.178-2.218,2.825-3.934,4.94-5.147,2.113-1.214,4.558-1.82,7.332-1.82,2.669,0,5.052.624,7.149,1.872s3.735,2.999,4.914,5.252c1.179,2.254,1.769,4.818,1.769,7.696v2.184h-20.437c.104,1.733.763,3.138,1.977,4.212,1.213,1.075,2.808,1.612,4.783,1.612,1.387,0,2.669-.304,3.849-.91,1.178-.606,2.461-1.655,3.848-3.146l4.628,4.732c-1.595,1.768-3.432,3.146-5.512,4.134s-4.352,1.482-6.812,1.482c-2.808,0-5.286-.607-7.436-1.82-2.15-1.213-3.814-2.92-4.992-5.122-1.179-2.201-1.768-4.723-1.768-7.565Zm20.384-3.017c-.139-1.525-.806-2.79-2.002-3.796-1.196-1.005-2.645-1.508-4.342-1.508-1.769,0-3.225.485-4.368,1.456-1.145.971-1.855,2.254-2.132,3.848h12.844Z"/>
    <path class="cls-3" d="m231.733,41.947l-9.517-13.624h8.736l5.252,8.268h.104l5.304-8.268h8.736l-9.673,13.624,9.881,13.936h-8.736l-5.512-8.58h-.104l-5.46,8.58h-8.736l9.725-13.936Z"/>
    <path class="cls-3" d="m272.761,34.978v11.076c0,.937.216,1.612.649,2.028s1.152.624,2.158.624h6.292v7.176h-6.968c-3.051,0-5.408-.719-7.072-2.158-1.664-1.438-2.496-3.492-2.496-6.162v-12.584h-6.76v-6.655h6.76v-7.021h7.437v7.021h10.815v6.655h-10.815Z"/>
    <path class="cls-3" d="m327.204,53.491h-.104v2.392h-6.863V17.922h7.436v12.116h.104c1.768-1.664,4.212-2.496,7.332-2.496,2.461,0,4.662.624,6.604,1.872s3.449,2.981,4.524,5.2c1.074,2.219,1.611,4.715,1.611,7.487,0,2.878-.537,5.417-1.611,7.618-1.075,2.202-2.574,3.909-4.498,5.122-1.925,1.213-4.101,1.82-6.526,1.82-3.294,0-5.963-1.058-8.008-3.172Zm13.208-11.389c0-2.356-.564-4.237-1.69-5.642-1.127-1.404-2.661-2.106-4.602-2.106-1.214,0-2.314.278-3.302.832-.988.556-1.761,1.283-2.314,2.185-.555.901-.832,1.872-.832,2.912v3.588c0,1.664.615,3.076,1.846,4.237,1.23,1.162,2.782,1.742,4.654,1.742s3.38-.71,4.524-2.132c1.144-1.421,1.716-3.293,1.716-5.616Z"/>
    <path class="cls-3" d="m381.543,49.071v6.812h-27.092v-6.812h9.828v-13.937h-9.308v-6.812h16.743v20.748h9.828Zm-17.42-32.396h7.645v7.332h-7.645v-7.332Z"/>
    <path class="cls-3" d="m416.279,49.071v6.812h-27.092v-6.812h9.828v-22.776h-9.308v-6.812h16.743v29.589h9.828Z"/>
    <path class="cls-3" d="m451.015,49.071v6.812h-27.092v-6.812h9.828v-22.776h-9.308v-6.812h16.743v29.589h9.828Z"/>
    <path class="cls-3" d="m485.75,49.071v6.812h-27.092v-6.812h9.828v-13.937h-9.308v-6.812h16.743v20.748h9.828Zm-17.42-32.396h7.645v7.332h-7.645v-7.332Z"/>
    <path class="cls-3" d="m492.875,42.102c0-2.842.589-5.364,1.768-7.565,1.178-2.201,2.834-3.917,4.966-5.148,2.132-1.23,4.567-1.846,7.307-1.846,2.772,0,5.226.615,7.357,1.846,2.132,1.231,3.787,2.947,4.966,5.148s1.769,4.724,1.769,7.565-.59,5.365-1.769,7.566c-1.179,2.202-2.834,3.918-4.966,5.147-2.132,1.23-4.585,1.847-7.357,1.847-2.739,0-5.175-.616-7.307-1.847-2.132-1.229-3.788-2.945-4.966-5.147-1.179-2.201-1.768-4.724-1.768-7.566Zm20.695,0c0-2.426-.581-4.324-1.741-5.693-1.162-1.369-2.801-2.055-4.914-2.055-2.08,0-3.701.686-4.862,2.055-1.162,1.369-1.742,3.268-1.742,5.693s.58,4.325,1.742,5.694c1.161,1.37,2.782,2.054,4.862,2.054s3.709-.692,4.888-2.08c1.178-1.386,1.768-3.275,1.768-5.668Z"/>
    <path class="cls-3" d="m528.91,28.323h7.436v2.6h.104c1.108-1.109,2.305-1.95,3.588-2.522,1.282-.571,2.738-.857,4.368-.857,1.802,0,3.483.425,5.044,1.273,1.56.851,2.825,2.15,3.796,3.9.97,1.751,1.456,3.926,1.456,6.526v16.64h-7.437v-15.652c0-1.768-.45-3.188-1.352-4.264-.902-1.074-2.202-1.612-3.9-1.612-1.768,0-3.154.512-4.16,1.534-1.006,1.023-1.508,2.436-1.508,4.238v15.756h-7.436v-27.56Z"/>
    <path class="cls-3" d="m161.117,93.344h-7.279v-6.656h7.279v-4.056c0-2.427.807-4.342,2.418-5.746,1.612-1.404,3.84-2.106,6.683-2.106h8.008v6.604h-7.124c-.729,0-1.283.19-1.664.572-.382.382-.572.919-.572,1.611v3.12h11.024v6.656h-11.024v17.836h-7.748v-17.836Z"/>
    <path class="cls-3" d="m185.453,97.452c0-2.878.589-5.426,1.768-7.645,1.178-2.218,2.825-3.934,4.94-5.147,2.113-1.214,4.558-1.82,7.332-1.82,2.669,0,5.052.624,7.149,1.872s3.735,2.999,4.914,5.252c1.179,2.254,1.769,4.818,1.769,7.696v2.184h-20.437c.104,1.733.763,3.138,1.977,4.212,1.213,1.075,2.808,1.612,4.783,1.612,1.387,0,2.669-.304,3.849-.91,1.178-.606,2.461-1.655,3.848-3.146l4.628,4.732c-1.595,1.768-3.432,3.146-5.512,4.134s-4.352,1.482-6.812,1.482c-2.808,0-5.286-.607-7.436-1.82-2.15-1.213-3.814-2.92-4.992-5.122-1.179-2.201-1.768-4.723-1.768-7.565Zm20.384-3.017c-.139-1.525-.806-2.79-2.002-3.796-1.196-1.005-2.645-1.508-4.342-1.508-1.769,0-3.225.485-4.368,1.456-1.145.971-1.855,2.254-2.132,3.848h12.844Z"/>
    <path class="cls-3" d="m247.801,104.369v6.812h-27.092v-6.812h9.828v-22.776h-9.308v-6.812h16.743v29.589h9.828Z"/>
    <path class="cls-3" d="m282.536,104.369v6.812h-27.092v-6.812h9.828v-22.776h-9.308v-6.812h16.743v29.589h9.828Z"/>
    <path class="cls-3" d="m289.66,97.4c0-2.842.589-5.364,1.768-7.565,1.178-2.201,2.834-3.917,4.966-5.148,2.132-1.23,4.567-1.846,7.307-1.846,2.772,0,5.226.615,7.357,1.846,2.132,1.231,3.787,2.947,4.966,5.148s1.769,4.724,1.769,7.565-.59,5.365-1.769,7.566c-1.179,2.202-2.834,3.918-4.966,5.147-2.132,1.23-4.585,1.847-7.357,1.847-2.739,0-5.175-.616-7.307-1.847-2.132-1.229-3.788-2.945-4.966-5.147-1.179-2.201-1.768-4.724-1.768-7.566Zm20.695,0c0-2.426-.581-4.324-1.741-5.693-1.162-1.369-2.801-2.055-4.914-2.055-2.08,0-3.701.686-4.862,2.055-1.162,1.369-1.742,3.268-1.742,5.693s.58,4.325,1.742,5.694c1.161,1.37,2.782,2.054,4.862,2.054s3.709-.692,4.888-2.08c1.178-1.386,1.768-3.275,1.768-5.668Z"/>
    <path class="cls-3" d="m323.616,83.62h7.02l2.185,16.535h.104l3.328-11.283h6.448l3.328,11.283h.104l2.185-16.535h7.071l-4.888,27.56h-7.384l-3.588-12.636h-.104l-3.588,12.636h-7.384l-4.836-27.56Z"/>
    <path class="cls-3" d="m362.98,102.08l6.76-1.561c.485,1.734,1.36,3.06,2.626,3.979s2.868,1.378,4.811,1.378c1.732,0,3.059-.208,3.978-.624.918-.416,1.378-1.005,1.378-1.769,0-.866-.468-1.534-1.403-2.002-.937-.468-2.652-.944-5.148-1.43-4.091-.762-7.012-1.82-8.762-3.172-1.751-1.353-2.626-3.206-2.626-5.564,0-1.664.485-3.137,1.456-4.42.97-1.282,2.331-2.279,4.082-2.99,1.75-.71,3.752-1.065,6.006-1.065,3.085,0,5.824.763,8.216,2.288s4.004,3.554,4.836,6.084l-6.396,2.08c-.521-1.387-1.361-2.461-2.522-3.225-1.162-.762-2.557-1.144-4.186-1.144-1.353,0-2.428.217-3.225.649-.798.435-1.195,1.032-1.195,1.795,0,.693.441,1.257,1.325,1.689.885.434,2.487.858,4.811,1.274,4.229.798,7.254,1.897,9.074,3.302,1.819,1.404,2.729,3.354,2.729,5.85,0,1.699-.512,3.19-1.534,4.473s-2.479,2.271-4.368,2.964c-1.89.692-4.064,1.04-6.525,1.04-3.744,0-6.856-.866-9.334-2.601-2.479-1.732-4.1-4.16-4.862-7.279Z"/>
    <path class="cls-3" d="m398.287,73.22h7.436v12.948h.104c1.94-2.219,4.593-3.328,7.956-3.328,2.01,0,3.796.485,5.355,1.456,1.561.971,2.773,2.34,3.641,4.107.866,1.769,1.3,3.814,1.3,6.137v16.64h-7.437v-15.652c0-1.837-.468-3.275-1.403-4.315-.937-1.04-2.22-1.561-3.849-1.561-1.768,0-3.154.512-4.16,1.534-1.006,1.023-1.508,2.436-1.508,4.238v15.756h-7.436v-37.96Z"/>
    <path class="cls-3" d="m459.335,104.369v6.812h-27.092v-6.812h9.828v-13.937h-9.308v-6.812h16.743v20.748h9.828Zm-17.42-32.396h7.645v7.332h-7.645v-7.332Z"/>
    <path class="cls-3" d="m467.499,83.62h7.124v2.392h.104c2.045-2.114,4.628-3.172,7.748-3.172,2.426,0,4.602.606,6.526,1.82,1.924,1.214,3.423,2.921,4.498,5.121,1.074,2.202,1.611,4.741,1.611,7.618,0,2.774-.537,5.271-1.611,7.488-1.075,2.219-2.583,3.952-4.524,5.2s-4.143,1.872-6.604,1.872c-1.561,0-2.965-.243-4.213-.729-1.248-.484-2.287-1.144-3.119-1.976h-.104v15.972h-7.436v-41.607Zm20.176,13.779c0-2.356-.59-4.237-1.769-5.642s-2.808-2.106-4.888-2.106c-1.664,0-3.094.581-4.29,1.742-1.196,1.162-1.794,2.574-1.794,4.238v3.588c0,1.04.277,2.011.832,2.912.554.901,1.326,1.63,2.314,2.184.987.556,2.088.832,3.302.832,1.94,0,3.475-.702,4.602-2.105,1.126-1.404,1.69-3.284,1.69-5.643Z"/>
  </g>
</svg>