<?xml version="1.0" encoding="UTF-8" standalone="no"?>
<!-- Generator: Adobe Illustrator 25.0.0, SVG Export Plug-In . SVG Version: 6.00 Build 0)  -->

<svg
   version="1.1"
   id="Layer_1"
   x="0px"
   y="0px"
   width="479.766px"
   height="181.228px"
   viewBox="0 0 479.766 181.228"
   enable-background="new 0 0 479.766 181.228"
   xml:space="preserve"
   sodipodi:docname="fellowship-program-logo.svg"
   inkscape:version="1.2.2 (b0a8486541, 2022-12-01)"
   xmlns:inkscape="http://www.inkscape.org/namespaces/inkscape"
   xmlns:sodipodi="http://sodipodi.sourceforge.net/DTD/sodipodi-0.dtd"
   xmlns="http://www.w3.org/2000/svg"
   xmlns:svg="http://www.w3.org/2000/svg"><defs
   id="defs251"><rect
     x="117.88933"
     y="34.986884"
     width="344.07039"
     height="112.36535"
     id="rect6483" /><rect
     x="131.03091"
     y="157.312"
     width="282.7194"
     height="23.916001"
     id="rect4978" /></defs><sodipodi:namedview
   id="namedview249"
   pagecolor="#ffffff"
   bordercolor="#999999"
   borderopacity="1"
   inkscape:showpageshadow="0"
   inkscape:pageopacity="0"
   inkscape:pagecheckerboard="0"
   inkscape:deskcolor="#d1d1d1"
   showgrid="false"
   inkscape:zoom="4.0894937"
   inkscape:cx="227.16749"
   inkscape:cy="90.720277"
   inkscape:window-width="3840"
   inkscape:window-height="2079"
   inkscape:window-x="0"
   inkscape:window-y="0"
   inkscape:window-maximized="1"
   inkscape:current-layer="text6481" />
<g
   id="g234">
	
	<g
   id="g232">
		<linearGradient
   id="SVGID_1_"
   gradientUnits="userSpaceOnUse"
   x1="-1.3003"
   y1="104.7261"
   x2="64.2319"
   y2="170.2583">
			<stop
   offset="0"
   style="stop-color:#F5B867"
   id="stop190" />
			<stop
   offset="1"
   style="stop-color:#EA818A"
   id="stop192" />
		</linearGradient>
		<polygon
   fill="url(#SVGID_1_)"
   points="0,103.426 53.262,181.228 53.262,137.348   "
   id="polygon195" />
		<linearGradient
   id="SVGID_2_"
   gradientUnits="userSpaceOnUse"
   x1="16.8299"
   y1="36.4319"
   x2="46.5826"
   y2="66.1846">
			<stop
   offset="0"
   style="stop-color:#C6DC66"
   id="stop197" />
			<stop
   offset="1"
   style="stop-color:#87C765"
   id="stop199" />
		</linearGradient>
		<polygon
   fill="url(#SVGID_2_)"
   points="53.262,62.032 53.262,0 0,92.466 53.262,62.201   "
   id="polygon202" />
		<linearGradient
   id="SVGID_3_"
   gradientUnits="userSpaceOnUse"
   x1="14.8117"
   y1="69.6579"
   x2="61.9079"
   y2="100.2425">
			<stop
   offset="0"
   style="stop-color:#30C1D8"
   id="stop204" />
			<stop
   offset="1"
   style="stop-color:#0090B8"
   id="stop206" />
		</linearGradient>
		<polygon
   fill="url(#SVGID_3_)"
   points="53.262,62.201 0,92.466 53.262,126.388   "
   id="polygon209" />
		<linearGradient
   id="SVGID_4_"
   gradientUnits="userSpaceOnUse"
   x1="42.2918"
   y1="170.2583"
   x2="107.824"
   y2="104.7261">
			<stop
   offset="0"
   style="stop-color:#D86E6A"
   id="stop211" />
			<stop
   offset="1"
   style="stop-color:#D64B8B"
   id="stop213" />
		</linearGradient>
		<polygon
   fill="url(#SVGID_4_)"
   points="53.262,181.228 106.524,103.426 53.262,137.348   "
   id="polygon216" />
		<linearGradient
   id="SVGID_5_"
   gradientUnits="userSpaceOnUse"
   x1="37.7116"
   y1="15.5502"
   x2="110.5754"
   y2="88.4141">
			<stop
   offset="0"
   style="stop-color:#9EB454"
   id="stop218" />
			<stop
   offset="1"
   style="stop-color:#519157"
   id="stop220" />
		</linearGradient>
		<polygon
   fill="url(#SVGID_5_)"
   points="53.262,62.201 106.524,92.466 53.262,0 53.262,62.032   "
   id="polygon223" />
		<linearGradient
   id="SVGID_6_"
   gradientUnits="userSpaceOnUse"
   x1="39.5898"
   y1="83.254"
   x2="90.8767"
   y2="116.5601">
			<stop
   offset="0"
   style="stop-color:#057597"
   id="stop225" />
			<stop
   offset="1"
   style="stop-color:#07567D"
   id="stop227" />
		</linearGradient>
		<polygon
   fill="url(#SVGID_6_)"
   points="53.262,126.388 106.524,92.466 53.262,62.201   "
   id="polygon230" />
	</g>
<g
   aria-label="next billion
fellowship
"
   transform="matrix(1.1311603,0,0,1.132903,-0.53449483,-3.697968)"
   id="text6481"
   style="font-weight:bold;font-size:42.6667px;font-family:'DejaVu Sans Mono';-inkscape-font-specification:'DejaVu Sans Mono Bold';white-space:pre;shape-inside:url(#rect6483);fill:#37374d;stroke-width:0"><path
     d="m 140.20119,57.590512 v 15.145844 h -6.06251 V 58.528012 q 0,-2.541668 -0.72916,-3.625002 -0.70834,-1.104168 -2.33334,-1.104168 -1.64583,0 -2.60417,1.479168 -0.9375,1.479168 -0.9375,4.10417 v 13.354176 h -6.0625 v -23.33335 h 6.0625 v 3.500002 q 0.64584,-1.937501 2.20834,-3.000002 1.5625,-1.062501 3.77083,-1.062501 3.31251,0 5.00001,2.208335 1.6875,2.187502 1.6875,6.541672 z"
     id="path2964" /><path
     d="m 166.53454,71.590522 q -2.125,0.875001 -4.33334,1.312501 -2.20833,0.4375 -4.66667,0.4375 -5.85417,0 -8.95834,-3.125002 -3.08333,-3.145836 -3.08333,-9.041673 0,-5.708338 2.97917,-9.02084 2.97917,-3.312503 8.125,-3.312503 5.18751,0 8.04168,3.083336 2.875,3.062502 2.875,8.64584 v 2.479168 H 151.7012 q 0.0208,2.750002 1.625,4.10417 1.60417,1.354167 4.79167,1.354167 2.10417,0 4.14583,-0.604167 2.04167,-0.604167 4.27084,-1.916668 z m -5.16667,-13.12501 q -0.0417,-2.416668 -1.25,-3.645836 -1.1875,-1.250001 -3.52084,-1.250001 -2.10416,0 -3.35417,1.291668 -1.25,1.270834 -1.47916,3.625003 z"
     id="path2966" /><path
     d="m 193.11789,49.403006 -7.85417,11.166675 8.54167,12.166675 h -7.125 l -4.58334,-7.854172 -4.5625,7.854172 h -7.12501 l 8.62501,-12.166675 -7.93751,-11.166675 h 7.12501 l 3.875,6.958338 3.89584,-6.958338 z"
     id="path2968" /><path
     d="m 209.32624,42.778001 v 6.625005 h 7.97918 v 4.687503 h -7.97918 v 11.041675 q 0,1.562501 0.75,2.250002 0.77084,0.666667 2.54167,0.666667 h 4.68751 v 4.687503 h -5.12501 q -5.25,0 -7.10417,-1.666668 -1.85417,-1.687501 -1.85417,-6.229171 V 54.090509 h -5.95834 v -4.687503 h 5.95834 v -6.625005 z"
     id="path2970" /><path
     d="m 264.03461,61.132181 q 0,-3.375003 -1.125,-5.291671 -1.125,-1.916668 -3.10417,-1.916668 -1.97917,0 -3.125,1.916668 -1.14584,1.916668 -1.14584,5.291671 0,3.375002 1.14584,5.291671 1.14583,1.916668 3.125,1.916668 1.97917,0 3.10417,-1.916668 1.125,-1.916669 1.125,-5.291671 z m -8.50001,-8.416673 q 1.125,-1.937501 2.60417,-2.895835 1.5,-0.979168 3.375,-0.979168 4.14584,0 6.37501,3.166669 2.25,3.166669 2.25,9.08334 0,5.833338 -2.20833,9.041674 -2.20834,3.208335 -6.20834,3.208335 -2.10417,0 -3.66667,-1.020834 -1.5625,-1.020834 -2.52084,-3.041669 v 3.458336 h -6.08333 V 40.319665 h 6.08333 z"
     id="path2972" /><path
     d="m 276.61796,49.403006 h 12.08335 v 18.645847 h 7.58334 v 4.687503 h -21.29169 v -4.687503 h 7.60418 V 54.090509 h -5.97918 z m 5.97918,-11.354176 h 6.10417 v 7.125006 h -6.10417 z"
     id="path2974" /><path
     d="M 305.76382,63.007182 V 45.007169 h -6.18751 v -4.687504 h 12.29168 v 22.687517 q 0,2.750002 0.85416,3.895837 0.85417,1.145834 2.89584,1.145834 h 4.875 v 4.687503 h -6.58334 q -4.35417,0 -6.25,-2.250001 -1.89583,-2.250002 -1.89583,-7.479173 z"
     id="path2976" /><path
     d="M 331.45133,63.007182 V 45.007169 h -6.1875 v -4.687504 h 12.29167 v 22.687517 q 0,2.750002 0.85417,3.895837 0.85417,1.145834 2.89583,1.145834 h 4.87501 v 4.687503 h -6.58334 q -4.35417,0 -6.25,-2.250001 -1.89584,-2.250002 -1.89584,-7.479173 z"
     id="path2978" /><path
     d="m 353.68051,49.403006 h 12.08334 v 18.645847 h 7.58334 v 4.687503 h -21.29168 v -4.687503 h 7.60417 V 54.090509 h -5.97917 z m 5.97917,-11.354176 h 6.10417 v 7.125006 h -6.10417 z"
     id="path2980" /><path
     d="m 387.5972,53.798842 q -2.1875,0 -3.4375,1.937502 -1.25001,1.916668 -1.25001,5.35417 0,3.437503 1.25001,5.375004 1.25,1.916668 3.4375,1.916668 2.20833,0 3.45833,-1.916668 1.25,-1.937501 1.25,-5.375004 0,-3.437502 -1.25,-5.35417 -1.25,-1.937502 -3.45833,-1.937502 z m -10.79168,7.291672 q 0,-5.645837 2.91667,-8.937506 2.9375,-3.312503 7.87501,-3.312503 4.95833,0 7.875,3.312503 2.93751,3.291669 2.93751,8.937506 0,5.645838 -2.93751,8.95834 -2.91667,3.291669 -7.875,3.291669 -4.93751,0 -7.87501,-3.291669 -2.91667,-3.312502 -2.91667,-8.95834 z"
     id="path2982" /><path
     d="m 422.7639,57.590512 v 15.145844 h -6.0625 V 58.528012 q 0,-2.541668 -0.72917,-3.625002 -0.70833,-1.104168 -2.33333,-1.104168 -1.64584,0 -2.60417,1.479168 -0.9375,1.479168 -0.9375,4.10417 v 13.354176 h -6.06251 v -23.33335 h 6.06251 v 3.500002 q 0.64583,-1.937501 2.20833,-3.000002 1.5625,-1.062501 3.77084,-1.062501 3.3125,0 5,2.208335 1.6875,2.187502 1.6875,6.541672 z"
     id="path2984" /><path
     d="m 133.28452,100.69471 v 2.04167 h 7.16667 v 4.6875 h -7.16667 v 18.64585 h -6.10417 v -18.64585 h -5.66668 v -4.6875 h 5.66668 v -1.625 q 0,-4.208338 1.75,-5.833339 1.75,-1.625002 6.5,-1.625002 h 5.02084 v 4.687504 h -4.77084 q -1.375,0 -1.875,0.5 -0.47917,0.500001 -0.52083,1.854167 z"
     id="path2986" /><path
     d="m 166.53454,124.9239 q -2.125,0.875 -4.33334,1.3125 -2.20833,0.4375 -4.66667,0.4375 -5.85417,0 -8.95834,-3.125 -3.08333,-3.14584 -3.08333,-9.04168 0,-5.70834 2.97917,-9.02084 2.97917,-3.3125 8.125,-3.3125 5.18751,0 8.04168,3.08333 2.875,3.06251 2.875,8.64584 v 2.47917 H 151.7012 q 0.0208,2.75001 1.625,4.10417 1.60417,1.35417 4.79167,1.35417 2.10417,0 4.14583,-0.60417 2.04167,-0.60416 4.27084,-1.91666 z m -5.16667,-13.12501 q -0.0417,-2.41667 -1.25,-3.64584 -1.1875,-1.25 -3.52084,-1.25 -2.10416,0 -3.35417,1.29167 -1.25,1.27083 -1.47916,3.625 z"
     id="path2988" /><path
     d="M 177.32622,116.34056 V 98.340543 h -6.18751 v -4.687504 h 12.29168 v 22.687521 q 0,2.75 0.85416,3.89583 0.85417,1.14584 2.89584,1.14584 h 4.875 v 4.6875 h -6.58333 q -4.35417,0 -6.25001,-2.25 -1.89583,-2.25 -1.89583,-7.47917 z"
     id="path2990" /><path
     d="M 203.01374,116.34056 V 98.340543 h -6.18751 v -4.687504 h 12.29168 v 22.687521 q 0,2.75 0.85417,3.89583 0.85416,1.14584 2.89583,1.14584 h 4.87501 v 4.6875 h -6.58334 q -4.35417,0 -6.25001,-2.25 -1.89583,-2.25 -1.89583,-7.47917 z"
     id="path2992" /><path
     d="m 233.47209,107.13222 q -2.1875,0 -3.4375,1.9375 -1.25,1.91667 -1.25,5.35417 0,3.4375 1.25,5.375 1.25,1.91667 3.4375,1.91667 2.20834,0 3.45834,-1.91667 1.25,-1.9375 1.25,-5.375 0,-3.4375 -1.25,-5.35417 -1.25,-1.9375 -3.45834,-1.9375 z m -10.79167,7.29167 q 0,-5.64584 2.91667,-8.93751 2.9375,-3.3125 7.875,-3.3125 4.95834,0 7.87501,3.3125 2.9375,3.29167 2.9375,8.93751 0,5.64584 -2.9375,8.95834 -2.91667,3.29167 -7.87501,3.29167 -4.9375,0 -7.875,-3.29167 -2.91667,-3.3125 -2.91667,-8.95834 z"
     id="path2994" /><path
     d="m 246.32626,102.73638 h 5.08334 l 2.77084,17.87501 2.52083,-11.77084 h 4.9375 l 2.47917,11.77084 2.81251,-17.87501 h 5.08333 l -4.22917,23.33335 h -5.79167 l -2.83333,-12.12501 -2.81251,12.12501 h -5.79167 z"
     id="path2996" /><path
     d="m 292.65964,103.46555 v 5.33333 q -1.6875,-1.08333 -3.52083,-1.625 -1.8125,-0.5625 -3.64584,-0.5625 -2.04167,0 -3.08333,0.60417 -1.04167,0.58333 -1.04167,1.75 0,1.66667 4.45833,2.70834 l 0.22917,0.0625 1.75,0.41666 q 3.33334,0.79167 4.87501,2.56251 1.5625,1.75 1.5625,4.75 0,3.60417 -2.375,5.41667 -2.35417,1.79167 -7.10418,1.79167 -2.10416,0 -4.3125,-0.375 -2.20833,-0.35417 -4.47917,-1.08334 v -5.33333 q 2.02084,1.14583 4.10417,1.75 2.10417,0.60416 4.0625,0.60416 2.14584,0 3.25001,-0.625 1.10416,-0.625 1.10416,-1.8125 0,-1.16667 -0.79166,-1.79167 -0.77084,-0.625 -3.70834,-1.33333 l -1.6875,-0.375 q -3.5,-0.79167 -5.10417,-2.47917 -1.60417,-1.6875 -1.60417,-4.52084 0,-3.375 2.4375,-5.25 2.4375,-1.875 6.85417,-1.875 1.97917,0 3.93751,0.33333 1.97916,0.3125 3.83333,0.95834 z"
     id="path2998" /><path
     d="m 320.01383,110.92389 v 15.14584 h -6.06251 v -14.20834 q 0,-2.52084 -0.72917,-3.60417 -0.70833,-1.08334 -2.33333,-1.08334 -1.66667,0 -2.60417,1.47917 -0.9375,1.45834 -0.9375,4.0625 v 13.35418 h -6.0625 V 93.653039 h 6.0625 v 12.583341 q 0.64583,-1.9375 2.20833,-3 1.56251,-1.0625 3.77084,-1.0625 3.3125,0 5,2.20833 1.68751,2.18751 1.68751,6.54168 z"
     id="path3000" /><path
     d="m 327.99299,102.73638 h 12.08335 v 18.64585 h 7.58334 v 4.6875 h -21.29169 v -4.6875 h 7.60418 v -13.95835 h -5.97918 z m 5.97918,-11.354176 h 6.10417 v 7.125006 h -6.10417 z"
     id="path3002" /><path
     d="m 358.28468,122.77806 v 12.16668 h -6.08334 v -32.20836 h 6.08334 v 3.5 q 0.95833,-2.02083 2.52084,-3.04167 1.5625,-1.02083 3.66666,-1.02083 4.00001,0 6.20834,3.20833 2.20834,3.20834 2.20834,9.04168 0,5.91667 -2.25,9.08334 -2.22917,3.16667 -6.37501,3.16667 -1.875,0 -3.375,-0.95834 -1.47917,-0.97916 -2.60417,-2.9375 z m 8.50001,-8.39584 q 0,-3.375 -1.125,-5.29167 -1.12501,-1.91667 -3.10417,-1.91667 -1.97917,0 -3.12501,1.91667 -1.14583,1.91667 -1.14583,5.29167 0,3.375 1.14583,5.29167 1.14584,1.91667 3.12501,1.91667 1.97916,0 3.10417,-1.91667 1.125,-1.91667 1.125,-5.29167 z"
     id="path3004" /></g></g>
<g
   id="g236">
</g>
<g
   id="g238">
</g>
<g
   id="g240">
</g>
<g
   id="g242">
</g>
<g
   id="g244">
</g>
<g
   id="g246">
</g>
<path
   style="fill:#000000;fill-opacity:0;stroke-width:0"
   d="m 145.98384,73.725508 v -8.92531 h -3.66793 -3.66794 V 61.62132 58.442442 h 3.66794 3.66793 v -2.890788 c 0,-3.434384 0.34237,-4.665364 1.73877,-6.251756 1.96645,-2.234012 4.27693,-2.834625 10.91561,-2.837532 l 4.21813,-0.0018 v 3.162776 3.162776 l -4.15085,0.07723 c -5.23481,0.0974 -5.22059,0.0884 -5.34899,3.384903 l -0.0855,2.194234 h 5.52624 5.52623 v 3.178878 3.178878 h -5.5019 -5.50191 v 8.92531 8.92531 h -3.66793 -3.66794 z"
   id="path2489" /><path
   style="fill:#000000;fill-opacity:0;stroke-width:0"
   d="m 145.98384,73.725508 v -8.92531 h -3.66793 -3.66794 V 61.62132 58.442442 h 3.66794 3.66793 v -2.890788 c 0,-3.434384 0.34237,-4.665364 1.73877,-6.251756 1.96645,-2.234012 4.27693,-2.834625 10.91561,-2.837532 l 4.21813,-0.0018 v 3.162776 3.162776 l -4.15085,0.07723 c -5.23481,0.0974 -5.22059,0.0884 -5.34899,3.384903 l -0.0855,2.194234 h 5.52624 5.52623 v 3.178878 3.178878 h -5.5019 -5.50191 v 8.92531 8.92531 h -3.66793 -3.66794 z"
   id="path2491" /></svg>
