<?xml version="1.0" encoding="iso-8859-1"?>
<!-- Generator: Adobe Illustrator 25.0.0, SVG Export Plug-In . SVG Version: 6.00 Build 0)  -->
<svg version="1.1" id="Layer_1" xmlns="http://www.w3.org/2000/svg" xmlns:xlink="http://www.w3.org/1999/xlink" x="0px" y="0px"
	 width="199.666px" height="261.398px" viewBox="0 0 199.666 261.398" enable-background="new 0 0 199.666 261.398"
	 xml:space="preserve">
<g>
	<g>
		<path fill="#37374D" d="M4.259,212.221H0v-3.895h4.259v-2.372c0-1.42,0.472-2.541,1.415-3.362c0.943-0.821,2.246-1.232,3.91-1.232
			h4.685v3.864h-4.168c-0.426,0-0.75,0.111-0.974,0.335c-0.223,0.223-0.334,0.537-0.334,0.942v1.825h6.45v3.895h-6.45v10.436H4.259
			V212.221z"/>
		<path fill="#37374D" d="M18.497,214.625c0-1.683,0.345-3.174,1.034-4.472s1.653-2.302,2.89-3.012s2.667-1.065,4.29-1.065
			c1.562,0,2.956,0.365,4.183,1.096c1.227,0.729,2.185,1.754,2.875,3.072c0.689,1.318,1.034,2.819,1.034,4.503v1.277H22.848
			c0.061,1.015,0.446,1.836,1.156,2.465s1.643,0.942,2.799,0.942c0.811,0,1.562-0.177,2.251-0.532
			c0.689-0.354,1.44-0.968,2.251-1.84l2.708,2.768c-0.933,1.035-2.008,1.841-3.225,2.419s-2.545,0.867-3.985,0.867
			c-1.643,0-3.093-0.355-4.351-1.064c-1.258-0.71-2.231-1.709-2.921-2.997S18.497,216.288,18.497,214.625z M30.423,212.86
			c-0.081-0.892-0.472-1.632-1.171-2.221c-0.7-0.588-1.547-0.882-2.54-0.882c-1.035,0-1.886,0.284-2.556,0.852
			c-0.669,0.568-1.085,1.318-1.248,2.251H30.423z"/>
		<path fill="#37374D" d="M54.975,218.671v3.985H39.124v-3.985h5.75v-13.326h-5.446v-3.985h9.796v17.312H54.975z"/>
		<path fill="#37374D" d="M75.297,218.671v3.985H59.446v-3.985h5.75v-13.326H59.75v-3.985h9.796v17.312H75.297z"/>
		<path fill="#37374D" d="M79.465,214.594c0-1.663,0.345-3.139,1.034-4.427c0.689-1.287,1.658-2.291,2.906-3.012
			c1.247-0.72,2.672-1.08,4.274-1.08c1.622,0,3.058,0.36,4.305,1.08c1.248,0.721,2.216,1.725,2.905,3.012
			c0.689,1.288,1.035,2.764,1.035,4.427s-0.345,3.139-1.035,4.427s-1.658,2.292-2.905,3.012c-1.247,0.72-2.683,1.08-4.305,1.08
			c-1.603,0-3.027-0.36-4.274-1.08c-1.248-0.72-2.216-1.724-2.906-3.012S79.465,216.257,79.465,214.594z M91.573,214.594
			c0-1.419-0.34-2.53-1.019-3.331c-0.68-0.801-1.638-1.202-2.875-1.202c-1.217,0-2.166,0.401-2.845,1.202
			c-0.68,0.801-1.019,1.912-1.019,3.331c0,1.42,0.339,2.53,1.019,3.331c0.679,0.802,1.627,1.202,2.845,1.202
			c1.217,0,2.17-0.405,2.86-1.217C91.228,217.099,91.573,215.994,91.573,214.594z"/>
		<path fill="#37374D" d="M99.331,206.532h4.107l1.277,9.675h0.061l1.947-6.602h3.772l1.947,6.602h0.061l1.278-9.675h4.138
			l-2.86,16.125h-4.32l-2.099-7.394h-0.061l-2.099,7.394h-4.32L99.331,206.532z"/>
		<path fill="#37374D" d="M122.361,217.333l3.955-0.913c0.284,1.015,0.796,1.79,1.537,2.328c0.74,0.537,1.678,0.806,2.814,0.806
			c1.014,0,1.79-0.122,2.327-0.365s0.807-0.588,0.807-1.034c0-0.507-0.274-0.897-0.822-1.171c-0.547-0.274-1.551-0.553-3.012-0.837
			c-2.394-0.446-4.103-1.064-5.126-1.855c-1.024-0.791-1.536-1.876-1.536-3.256c0-0.974,0.284-1.835,0.852-2.586
			c0.568-0.75,1.364-1.333,2.388-1.749c1.024-0.416,2.195-0.624,3.514-0.624c1.805,0,3.407,0.446,4.807,1.339s2.343,2.079,2.83,3.56
			l-3.742,1.217c-0.304-0.811-0.796-1.439-1.476-1.887c-0.68-0.445-1.496-0.669-2.449-0.669c-0.791,0-1.42,0.127-1.887,0.38
			c-0.467,0.254-0.7,0.604-0.7,1.05c0,0.406,0.259,0.735,0.776,0.989s1.455,0.502,2.814,0.745c2.474,0.467,4.244,1.11,5.309,1.932
			s1.597,1.963,1.597,3.423c0,0.994-0.299,1.866-0.897,2.616c-0.598,0.751-1.45,1.329-2.556,1.734s-2.378,0.608-3.818,0.608
			c-2.19,0-4.011-0.507-5.461-1.521C123.756,220.578,122.807,219.158,122.361,217.333z"/>
		<path fill="#37374D" d="M143.019,200.448h4.35v7.575h0.061c1.136-1.298,2.687-1.947,4.655-1.947c1.176,0,2.221,0.284,3.134,0.852
			c0.913,0.568,1.622,1.369,2.129,2.404c0.507,1.034,0.761,2.23,0.761,3.59v9.735h-4.351V213.5c0-1.075-0.274-1.917-0.821-2.525
			c-0.548-0.608-1.298-0.913-2.251-0.913c-1.035,0-1.846,0.3-2.434,0.897c-0.588,0.599-0.882,1.426-0.882,2.479v9.219h-4.35V200.448
			z"/>
		<path fill="#37374D" d="M178.735,218.671v3.985h-15.851v-3.985h5.75v-8.153h-5.446v-3.986h9.796v12.14H178.735z M168.543,199.717
			h4.472v4.29h-4.472V199.717z"/>
		<path fill="#37374D" d="M183.511,206.532h4.168v1.399h0.061c1.196-1.236,2.708-1.855,4.533-1.855c1.419,0,2.693,0.355,3.818,1.065
			s2.002,1.708,2.631,2.996c0.628,1.288,0.943,2.773,0.943,4.457c0,1.623-0.315,3.083-0.943,4.381
			c-0.629,1.299-1.511,2.312-2.646,3.043c-1.136,0.729-2.424,1.095-3.864,1.095c-0.913,0-1.734-0.142-2.464-0.426
			s-1.339-0.669-1.825-1.156h-0.061v7.971h-4.351V206.532z M195.315,214.594c0-1.379-0.345-2.479-1.034-3.301
			c-0.69-0.821-1.643-1.232-2.86-1.232c-0.974,0-1.81,0.34-2.51,1.02c-0.7,0.68-1.049,1.506-1.049,2.479v2.099
			c0,0.609,0.162,1.177,0.487,1.704c0.324,0.527,0.776,0.954,1.354,1.277c0.578,0.325,1.222,0.487,1.932,0.487
			c1.136,0,2.033-0.411,2.692-1.232C194.985,217.074,195.315,215.974,195.315,214.594z"/>
		<path fill="#37374D" d="M32.005,238.884h4.168v1.399h0.061c1.196-1.236,2.708-1.855,4.533-1.855c1.419,0,2.693,0.355,3.818,1.065
			s2.002,1.708,2.631,2.996c0.628,1.288,0.943,2.773,0.943,4.457c0,1.623-0.315,3.083-0.943,4.381
			c-0.629,1.299-1.511,2.312-2.646,3.043c-1.136,0.729-2.424,1.095-3.864,1.095c-0.913,0-1.734-0.142-2.464-0.426
			s-1.339-0.669-1.825-1.156h-0.061v7.971h-4.351V238.884z M43.809,246.947c0-1.379-0.345-2.479-1.034-3.301
			c-0.69-0.821-1.643-1.232-2.86-1.232c-0.974,0-1.81,0.34-2.51,1.02c-0.7,0.68-1.049,1.506-1.049,2.479v2.099
			c0,0.609,0.162,1.177,0.487,1.704c0.324,0.527,0.776,0.954,1.354,1.277c0.578,0.325,1.222,0.487,1.932,0.487
			c1.136,0,2.033-0.411,2.692-1.232C43.479,249.426,43.809,248.327,43.809,246.947z"/>
		<path fill="#37374D" d="M53.058,238.884h4.168v1.491h0.061c0.689-0.689,1.404-1.187,2.145-1.491
			c0.74-0.304,1.586-0.456,2.54-0.456c1.4,0,2.606,0.411,3.621,1.232c1.014,0.821,1.724,1.942,2.129,3.361l-4.077,1.339
			c-0.467-1.318-1.43-1.978-2.89-1.978c-1.095,0-1.927,0.319-2.495,0.958c-0.568,0.64-0.852,1.517-0.852,2.632v9.036h-4.35V238.884z
			"/>
		<path fill="#37374D" d="M69.608,246.947c0-1.663,0.345-3.139,1.034-4.427c0.689-1.287,1.658-2.291,2.906-3.012
			c1.247-0.72,2.672-1.08,4.274-1.08c1.622,0,3.058,0.36,4.305,1.08c1.248,0.721,2.216,1.725,2.905,3.012
			c0.689,1.288,1.035,2.764,1.035,4.427s-0.345,3.139-1.035,4.427s-1.658,2.292-2.905,3.012c-1.247,0.72-2.683,1.08-4.305,1.08
			c-1.603,0-3.027-0.36-4.274-1.08c-1.248-0.72-2.216-1.724-2.906-3.012S69.608,248.61,69.608,246.947z M81.716,246.947
			c0-1.419-0.34-2.53-1.019-3.331c-0.68-0.801-1.638-1.202-2.875-1.202c-1.217,0-2.166,0.401-2.845,1.202
			c-0.68,0.801-1.019,1.912-1.019,3.331c0,1.42,0.339,2.53,1.019,3.331c0.679,0.802,1.627,1.202,2.845,1.202
			c1.217,0,2.17-0.405,2.86-1.217C81.371,249.452,81.716,248.346,81.716,246.947z"/>
		<path fill="#37374D" d="M90.508,258.599l3.316-2.525c0.608,0.872,1.222,1.485,1.841,1.841c0.618,0.354,1.384,0.532,2.297,0.532
			c1.136,0,2.038-0.314,2.708-0.943s1.004-1.501,1.004-2.616v-1.156h-0.061c-0.589,0.608-1.212,1.05-1.871,1.323
			c-0.659,0.274-1.456,0.411-2.388,0.411c-1.46,0-2.753-0.36-3.879-1.08c-1.126-0.72-1.998-1.724-2.617-3.012
			s-0.928-2.764-0.928-4.427c0-1.643,0.319-3.107,0.958-4.396c0.639-1.287,1.521-2.297,2.646-3.026
			c1.126-0.73,2.408-1.096,3.849-1.096c0.913,0,1.693,0.132,2.343,0.396c0.649,0.264,1.247,0.67,1.795,1.217h0.061v-1.156h4.199
			v16.186c0,1.42-0.33,2.678-0.989,3.772c-0.66,1.096-1.577,1.947-2.753,2.556c-1.177,0.608-2.536,0.913-4.077,0.913
			C94.798,262.311,92.313,261.074,90.508,258.599z M101.43,247.981v-2.099c0-1.055-0.325-1.896-0.974-2.525
			c-0.649-0.629-1.481-0.943-2.495-0.943c-1.136,0-2.034,0.406-2.692,1.217c-0.66,0.812-0.989,1.917-0.989,3.316
			c0,1.359,0.334,2.454,1.004,3.286s1.552,1.247,2.647,1.247c0.608,0,1.181-0.157,1.719-0.472c0.537-0.314,0.968-0.74,1.293-1.277
			C101.268,249.194,101.43,248.61,101.43,247.981z"/>
		<path fill="#37374D" d="M112.2,238.884h4.168v1.491h0.061c0.689-0.689,1.404-1.187,2.145-1.491c0.74-0.304,1.586-0.456,2.54-0.456
			c1.4,0,2.606,0.411,3.621,1.232c1.014,0.821,1.724,1.942,2.129,3.361l-4.077,1.339c-0.467-1.318-1.43-1.978-2.89-1.978
			c-1.095,0-1.927,0.319-2.495,0.958c-0.568,0.64-0.852,1.517-0.852,2.632v9.036h-4.35V238.884z"/>
		<path fill="#37374D" d="M130.362,250.689c0-1.501,0.512-2.667,1.537-3.499c1.024-0.831,2.732-1.439,5.126-1.825
			c1.257-0.202,2.115-0.431,2.571-0.685c0.457-0.253,0.685-0.593,0.685-1.019c0-0.487-0.224-0.872-0.669-1.156
			c-0.446-0.284-1.055-0.426-1.825-0.426c-0.873,0-1.628,0.264-2.267,0.791s-1.05,1.227-1.232,2.099l-4.046-0.912
			c0.203-1.096,0.659-2.069,1.369-2.921c0.709-0.853,1.602-1.517,2.677-1.993c1.075-0.477,2.241-0.715,3.499-0.715
			c2.069,0,3.722,0.578,4.959,1.734c1.237,1.156,1.856,2.697,1.856,4.624v10.223h-3.895v-1.795h-0.061
			c-0.467,0.71-1.121,1.263-1.962,1.658c-0.842,0.396-1.79,0.593-2.845,0.593s-1.998-0.203-2.829-0.608
			c-0.832-0.405-1.481-0.974-1.947-1.704C130.595,252.423,130.362,251.602,130.362,250.689z M140.463,249.016v-1.826h-0.061
			c-0.183,0.305-0.487,0.548-0.913,0.73s-1.095,0.365-2.008,0.548c-1.136,0.243-1.917,0.502-2.343,0.775
			c-0.426,0.274-0.639,0.654-0.639,1.141c0,0.467,0.187,0.822,0.562,1.065s0.917,0.365,1.628,0.365c0.649,0,1.267-0.127,1.856-0.381
			c0.588-0.253,1.054-0.598,1.399-1.034C140.29,249.964,140.463,249.502,140.463,249.016z"/>
		<path fill="#37374D" d="M150.441,238.884h3.833v1.399h0.061c0.344-0.547,0.786-0.968,1.323-1.262
			c0.537-0.294,1.13-0.441,1.78-0.441c1.278,0,2.302,0.599,3.073,1.795h0.061c0.811-1.196,1.927-1.795,3.347-1.795
			c1.176,0,2.13,0.416,2.86,1.247c0.73,0.832,1.095,1.917,1.095,3.256v11.926h-4.016v-11.166c0-0.466-0.122-0.821-0.365-1.064
			c-0.244-0.243-0.588-0.365-1.035-0.365c-0.426,0-0.766,0.137-1.019,0.411c-0.254,0.273-0.38,0.644-0.38,1.11v11.074h-3.803
			v-11.166c0-0.445-0.117-0.795-0.35-1.049s-0.562-0.381-0.988-0.381c-0.447,0-0.802,0.137-1.065,0.411
			c-0.264,0.273-0.396,0.644-0.396,1.11v11.074h-4.016V238.884z"/>
	</g>
	<g>
		<linearGradient id="SVGID_1_" gradientUnits="userSpaceOnUse" x1="45.0729" y1="104.7261" x2="110.6051" y2="170.2583">
			<stop  offset="0" style="stop-color:#F5B867"/>
			<stop  offset="1" style="stop-color:#EA818A"/>
		</linearGradient>
		<polygon fill="url(#SVGID_1_)" points="46.373,103.426 99.635,181.228 99.635,137.348 		"/>
		<linearGradient id="SVGID_2_" gradientUnits="userSpaceOnUse" x1="63.2031" y1="36.4319" x2="92.9558" y2="66.1846">
			<stop  offset="0" style="stop-color:#C6DC66"/>
			<stop  offset="1" style="stop-color:#87C765"/>
		</linearGradient>
		<polygon fill="url(#SVGID_2_)" points="99.635,62.032 99.635,0 46.373,92.466 99.635,62.201 		"/>
		<linearGradient id="SVGID_3_" gradientUnits="userSpaceOnUse" x1="61.1849" y1="69.6579" x2="108.2811" y2="100.2425">
			<stop  offset="0" style="stop-color:#30C1D8"/>
			<stop  offset="1" style="stop-color:#0090B8"/>
		</linearGradient>
		<polygon fill="url(#SVGID_3_)" points="99.635,62.201 46.373,92.466 99.635,126.388 		"/>
		<linearGradient id="SVGID_4_" gradientUnits="userSpaceOnUse" x1="88.665" y1="170.2583" x2="154.1972" y2="104.7261">
			<stop  offset="0" style="stop-color:#D86E6A"/>
			<stop  offset="1" style="stop-color:#D64B8B"/>
		</linearGradient>
		<polygon fill="url(#SVGID_4_)" points="99.635,181.228 152.897,103.426 99.635,137.348 		"/>
		<linearGradient id="SVGID_5_" gradientUnits="userSpaceOnUse" x1="84.0848" y1="15.5502" x2="156.9487" y2="88.4141">
			<stop  offset="0" style="stop-color:#9EB454"/>
			<stop  offset="1" style="stop-color:#519157"/>
		</linearGradient>
		<polygon fill="url(#SVGID_5_)" points="99.635,62.201 152.897,92.466 99.635,0 99.635,62.032 		"/>
		<linearGradient id="SVGID_6_" gradientUnits="userSpaceOnUse" x1="85.963" y1="83.254" x2="137.2499" y2="116.5601">
			<stop  offset="0" style="stop-color:#057597"/>
			<stop  offset="1" style="stop-color:#07567D"/>
		</linearGradient>
		<polygon fill="url(#SVGID_6_)" points="99.635,126.388 152.897,92.466 99.635,62.201 		"/>
	</g>
</g>
<g>
</g>
<g>
</g>
<g>
</g>
<g>
</g>
<g>
</g>
<g>
</g>
</svg>
