<?xml version="1.0" encoding="iso-8859-1"?>
<!-- Generator: Adobe Illustrator 25.0.0, SVG Export Plug-In . SVG Version: 6.00 Build 0)  -->
<svg version="1.1" id="Layer_1" xmlns="http://www.w3.org/2000/svg" xmlns:xlink="http://www.w3.org/1999/xlink" x="0px" y="0px"
	 width="479.766px" height="181.228px" viewBox="0 0 479.766 181.228" enable-background="new 0 0 479.766 181.228"
	 xml:space="preserve">
<g>
	<g>
		<path fill="#37374D" d="M145.773,64.979h-7.279v-6.656h7.279v-4.056c0-2.427,0.807-4.342,2.418-5.746
			c1.612-1.404,3.84-2.106,6.683-2.106h8.008v6.604h-7.124c-0.729,0-1.283,0.19-1.664,0.572c-0.382,0.382-0.572,0.919-0.572,1.611
			v3.12h11.024v6.656h-11.024v17.836h-7.748V64.979z"/>
		<path fill="#37374D" d="M170.109,69.088c0-2.878,0.589-5.426,1.768-7.645c1.178-2.218,2.825-3.934,4.94-5.147
			c2.113-1.214,4.558-1.82,7.332-1.82c2.669,0,5.052,0.624,7.149,1.872s3.735,2.999,4.914,5.252
			c1.179,2.254,1.769,4.818,1.769,7.696v2.184h-20.437c0.104,1.733,0.763,3.138,1.977,4.212c1.213,1.075,2.808,1.612,4.783,1.612
			c1.387,0,2.669-0.304,3.849-0.91c1.178-0.606,2.461-1.655,3.848-3.146l4.628,4.732c-1.595,1.768-3.432,3.146-5.512,4.134
			s-4.352,1.482-6.812,1.482c-2.808,0-5.286-0.607-7.436-1.82c-2.15-1.213-3.814-2.92-4.992-5.122
			C170.698,74.452,170.109,71.93,170.109,69.088z M190.493,66.071c-0.139-1.525-0.806-2.79-2.002-3.796
			c-1.196-1.005-2.645-1.508-4.342-1.508c-1.769,0-3.225,0.485-4.368,1.456c-1.145,0.971-1.855,2.254-2.132,3.848H190.493z"/>
		<path fill="#37374D" d="M232.457,76.004v6.812h-27.092v-6.812h9.828V53.227h-9.308v-6.812h16.743v29.589H232.457z"/>
		<path fill="#37374D" d="M267.192,76.004v6.812H240.1v-6.812h9.828V53.227h-9.308v-6.812h16.743v29.589H267.192z"/>
		<path fill="#37374D" d="M274.316,69.035c0-2.842,0.589-5.364,1.768-7.565c1.178-2.201,2.834-3.917,4.966-5.148
			c2.132-1.23,4.567-1.846,7.307-1.846c2.772,0,5.226,0.615,7.357,1.846c2.132,1.231,3.787,2.947,4.966,5.148
			s1.769,4.724,1.769,7.565c0,2.843-0.59,5.365-1.769,7.566c-1.179,2.202-2.834,3.918-4.966,5.147
			c-2.132,1.23-4.585,1.847-7.357,1.847c-2.739,0-5.175-0.616-7.307-1.847c-2.132-1.229-3.788-2.945-4.966-5.147
			C274.905,74.4,274.316,71.878,274.316,69.035z M295.011,69.035c0-2.426-0.581-4.324-1.741-5.693
			c-1.162-1.369-2.801-2.055-4.914-2.055c-2.08,0-3.701,0.686-4.862,2.055c-1.162,1.369-1.742,3.268-1.742,5.693
			c0,2.427,0.58,4.325,1.742,5.694c1.161,1.37,2.782,2.054,4.862,2.054s3.709-0.692,4.888-2.08
			C294.422,73.317,295.011,71.427,295.011,69.035z"/>
		<path fill="#37374D" d="M308.272,55.256h7.02l2.185,16.535h0.104l3.328-11.283h6.448l3.328,11.283h0.104l2.185-16.535h7.071
			l-4.888,27.56h-7.384l-3.588-12.636h-0.104l-3.588,12.636h-7.384L308.272,55.256z"/>
		<path fill="#37374D" d="M347.635,73.715l6.76-1.561c0.485,1.734,1.36,3.06,2.626,3.979s2.868,1.378,4.811,1.378
			c1.732,0,3.059-0.208,3.978-0.624c0.918-0.416,1.378-1.005,1.378-1.769c0-0.866-0.468-1.534-1.403-2.002
			c-0.937-0.468-2.652-0.944-5.148-1.43c-4.091-0.762-7.012-1.82-8.762-3.172c-1.751-1.353-2.626-3.206-2.626-5.564
			c0-1.664,0.485-3.137,1.456-4.42c0.97-1.282,2.331-2.279,4.082-2.99c1.75-0.71,3.752-1.065,6.006-1.065
			c3.085,0,5.824,0.763,8.216,2.288s4.004,3.554,4.836,6.084l-6.396,2.08c-0.521-1.387-1.361-2.461-2.522-3.225
			c-1.162-0.762-2.557-1.144-4.186-1.144c-1.353,0-2.428,0.217-3.225,0.649c-0.798,0.435-1.195,1.032-1.195,1.795
			c0,0.693,0.441,1.257,1.325,1.689c0.885,0.434,2.487,0.858,4.811,1.274c4.229,0.798,7.254,1.897,9.074,3.302
			c1.819,1.404,2.729,3.354,2.729,5.85c0,1.699-0.512,3.19-1.534,4.473s-2.479,2.271-4.368,2.964c-1.89,0.692-4.064,1.04-6.525,1.04
			c-3.744,0-6.856-0.866-9.334-2.601C350.018,79.262,348.398,76.835,347.635,73.715z"/>
		<path fill="#37374D" d="M382.943,44.855h7.436v12.948h0.104c1.94-2.219,4.593-3.328,7.956-3.328c2.01,0,3.796,0.485,5.355,1.456
			c1.561,0.971,2.773,2.34,3.641,4.107c0.866,1.769,1.3,3.814,1.3,6.137v16.64h-7.437V67.163c0-1.837-0.468-3.275-1.403-4.315
			c-0.937-1.04-2.22-1.561-3.849-1.561c-1.768,0-3.154,0.512-4.16,1.534c-1.006,1.023-1.508,2.436-1.508,4.238v15.756h-7.436V44.855
			z"/>
		<path fill="#37374D" d="M443.991,76.004v6.812h-27.092v-6.812h9.828V62.067h-9.308v-6.812h16.743v20.748H443.991z M426.571,43.607
			h7.645v7.332h-7.645V43.607z"/>
		<path fill="#37374D" d="M452.155,55.256h7.124v2.392h0.104c2.045-2.114,4.628-3.172,7.748-3.172c2.426,0,4.602,0.606,6.526,1.82
			c1.924,1.214,3.423,2.921,4.498,5.121c1.074,2.202,1.611,4.741,1.611,7.618c0,2.774-0.537,5.271-1.611,7.488
			c-1.075,2.219-2.583,3.952-4.524,5.2s-4.143,1.872-6.604,1.872c-1.561,0-2.965-0.243-4.213-0.729
			c-1.248-0.484-2.287-1.144-3.119-1.976h-0.104v13.625h-7.436V55.256z M472.331,69.035c0-2.356-0.59-4.237-1.769-5.642
			s-2.808-2.106-4.888-2.106c-1.664,0-3.094,0.581-4.29,1.742c-1.196,1.162-1.794,2.574-1.794,4.238v3.588
			c0,1.04,0.277,2.011,0.832,2.912c0.554,0.901,1.326,1.63,2.314,2.184c0.987,0.556,2.088,0.832,3.302,0.832
			c1.94,0,3.475-0.702,4.602-2.105C471.766,73.273,472.331,71.393,472.331,69.035z"/>
		<path fill="#37374D" d="M138.494,110.554h7.124v2.392h0.104c2.045-2.114,4.628-3.172,7.748-3.172c2.426,0,4.602,0.606,6.526,1.82
			c1.924,1.214,3.423,2.921,4.498,5.121c1.074,2.202,1.611,4.741,1.611,7.618c0,2.774-0.537,5.271-1.611,7.488
			c-1.075,2.219-2.583,3.952-4.524,5.2s-4.143,1.872-6.604,1.872c-1.561,0-2.965-0.243-4.213-0.729
			c-1.248-0.484-2.287-1.144-3.119-1.976h-0.104v13.624h-7.436V110.554z M158.67,124.333c0-2.356-0.59-4.237-1.769-5.642
			s-2.808-2.106-4.888-2.106c-1.664,0-3.094,0.581-4.29,1.742c-1.196,1.162-1.794,2.574-1.794,4.238v3.588
			c0,1.04,0.277,2.011,0.832,2.912c0.554,0.901,1.326,1.63,2.314,2.184c0.987,0.556,2.088,0.832,3.302,0.832
			c1.94,0,3.475-0.702,4.602-2.105C158.105,128.571,158.67,126.692,158.67,124.333z"/>
		<path fill="#37374D" d="M174.477,110.554h7.123v2.548h0.104c1.178-1.179,2.4-2.028,3.666-2.548c1.265-0.521,2.712-0.78,4.342-0.78
			c2.393,0,4.454,0.702,6.188,2.105c1.732,1.404,2.946,3.32,3.64,5.746l-6.968,2.288c-0.798-2.253-2.444-3.38-4.94-3.38
			c-1.872,0-3.294,0.546-4.264,1.638c-0.971,1.093-1.456,2.592-1.456,4.498v15.444h-7.436V110.554z"/>
		<path fill="#37374D" d="M202.765,124.333c0-2.842,0.589-5.364,1.768-7.565c1.178-2.201,2.834-3.917,4.966-5.148
			c2.132-1.23,4.567-1.846,7.307-1.846c2.772,0,5.226,0.615,7.357,1.846c2.132,1.231,3.787,2.947,4.966,5.148
			s1.769,4.724,1.769,7.565c0,2.843-0.59,5.365-1.769,7.566c-1.179,2.202-2.834,3.918-4.966,5.147
			c-2.132,1.23-4.585,1.847-7.357,1.847c-2.739,0-5.175-0.616-7.307-1.847c-2.132-1.229-3.788-2.945-4.966-5.147
			C203.354,129.698,202.765,127.176,202.765,124.333z M223.461,124.333c0-2.426-0.581-4.324-1.741-5.693
			c-1.162-1.369-2.801-2.055-4.914-2.055c-2.08,0-3.701,0.686-4.862,2.055c-1.162,1.369-1.742,3.268-1.742,5.693
			c0,2.427,0.58,4.325,1.742,5.694c1.161,1.37,2.782,2.054,4.862,2.054s3.709-0.692,4.888-2.08
			C222.871,128.615,223.461,126.726,223.461,124.333z"/>
		<path fill="#37374D" d="M238.488,144.249l5.668-4.315c1.04,1.49,2.089,2.539,3.146,3.146c1.057,0.606,2.366,0.91,3.926,0.91
			c1.941,0,3.484-0.538,4.628-1.612c1.145-1.074,1.716-2.565,1.716-4.472v-1.976h-0.104c-1.006,1.04-2.072,1.794-3.198,2.262
			c-1.127,0.468-2.487,0.702-4.082,0.702c-2.496,0-4.706-0.616-6.63-1.847c-1.924-1.229-3.415-2.945-4.472-5.147
			c-1.059-2.201-1.586-4.724-1.586-7.566c0-2.808,0.546-5.312,1.638-7.514c1.092-2.201,2.6-3.926,4.524-5.174
			c1.924-1.248,4.115-1.872,6.577-1.872c1.561,0,2.895,0.226,4.004,0.676c1.109,0.451,2.133,1.145,3.068,2.08h0.104v-1.976h7.176
			v27.663c0,2.427-0.564,4.576-1.69,6.448c-1.127,1.872-2.695,3.328-4.706,4.368s-4.334,1.561-6.968,1.561
			C245.82,150.594,241.573,148.479,238.488,144.249z M257.156,126.102v-3.588c0-1.803-0.555-3.241-1.664-4.316
			c-1.109-1.074-2.53-1.612-4.264-1.612c-1.941,0-3.476,0.694-4.602,2.08c-1.127,1.387-1.69,3.276-1.69,5.668
			c0,2.323,0.572,4.195,1.716,5.616c1.145,1.422,2.652,2.132,4.524,2.132c1.04,0,2.019-0.268,2.938-0.806
			c0.919-0.537,1.655-1.266,2.21-2.185C256.879,128.173,257.156,127.176,257.156,126.102z"/>
		<path fill="#37374D" d="M275.565,110.554h7.123v2.548h0.104c1.178-1.179,2.4-2.028,3.666-2.548c1.265-0.521,2.712-0.78,4.342-0.78
			c2.393,0,4.454,0.702,6.188,2.105c1.732,1.404,2.946,3.32,3.64,5.746l-6.968,2.288c-0.798-2.253-2.444-3.38-4.94-3.38
			c-1.872,0-3.294,0.546-4.264,1.638c-0.971,1.093-1.456,2.592-1.456,4.498v15.444h-7.436V110.554z"/>
		<path fill="#37374D" d="M306.608,130.73c0-2.565,0.875-4.559,2.626-5.98c1.75-1.421,4.671-2.461,8.762-3.12
			c2.149-0.346,3.614-0.735,4.395-1.17c0.779-0.433,1.17-1.014,1.17-1.742c0-0.831-0.382-1.489-1.145-1.976
			c-0.763-0.485-1.803-0.728-3.12-0.728c-1.49,0-2.781,0.45-3.874,1.352c-1.092,0.902-1.794,2.098-2.105,3.588l-6.916-1.56
			c0.346-1.872,1.126-3.536,2.34-4.992c1.213-1.456,2.738-2.591,4.576-3.406c1.837-0.813,3.83-1.222,5.979-1.222
			c3.536,0,6.361,0.988,8.477,2.964c2.114,1.976,3.172,4.611,3.172,7.904v17.472h-6.656v-3.068h-0.104
			c-0.798,1.214-1.916,2.158-3.354,2.834c-1.438,0.677-3.06,1.015-4.862,1.015s-3.414-0.348-4.836-1.04
			c-1.422-0.693-2.53-1.664-3.327-2.912C307.007,133.694,306.608,132.289,306.608,130.73z M323.872,127.869v-3.12h-0.104
			c-0.312,0.521-0.832,0.937-1.561,1.248c-0.728,0.312-1.872,0.624-3.432,0.937c-1.942,0.416-3.276,0.857-4.004,1.326
			c-0.729,0.468-1.092,1.117-1.092,1.949c0,0.798,0.319,1.404,0.962,1.82c0.641,0.416,1.567,0.624,2.781,0.624
			c1.109,0,2.167-0.216,3.173-0.65c1.005-0.433,1.802-1.021,2.392-1.768C323.577,129.49,323.872,128.701,323.872,127.869z"/>
		<path fill="#37374D" d="M340.927,110.554h6.552v2.392h0.104c0.589-0.936,1.343-1.655,2.262-2.158
			c0.918-0.502,1.932-0.754,3.042-0.754c2.184,0,3.935,1.023,5.252,3.068h0.104c1.386-2.045,3.293-3.068,5.72-3.068
			c2.01,0,3.64,0.711,4.888,2.132c1.248,1.422,1.872,3.276,1.872,5.564v20.384h-6.864v-19.084c0-0.797-0.208-1.404-0.624-1.82
			s-1.006-0.624-1.768-0.624c-0.729,0-1.309,0.234-1.742,0.702s-0.65,1.102-0.65,1.898v18.928h-6.5v-19.084
			c0-0.762-0.199-1.36-0.598-1.794s-0.962-0.65-1.689-0.65c-0.764,0-1.37,0.234-1.82,0.702c-0.451,0.468-0.676,1.102-0.676,1.898
			v18.928h-6.864V110.554z"/>
	</g>
	<g>
		<linearGradient id="SVGID_1_" gradientUnits="userSpaceOnUse" x1="-1.3003" y1="104.7261" x2="64.2319" y2="170.2583">
			<stop  offset="0" style="stop-color:#F5B867"/>
			<stop  offset="1" style="stop-color:#EA818A"/>
		</linearGradient>
		<polygon fill="url(#SVGID_1_)" points="0,103.426 53.262,181.228 53.262,137.348 		"/>
		<linearGradient id="SVGID_2_" gradientUnits="userSpaceOnUse" x1="16.8299" y1="36.4319" x2="46.5826" y2="66.1846">
			<stop  offset="0" style="stop-color:#C6DC66"/>
			<stop  offset="1" style="stop-color:#87C765"/>
		</linearGradient>
		<polygon fill="url(#SVGID_2_)" points="53.262,62.032 53.262,0 0,92.466 53.262,62.201 		"/>
		<linearGradient id="SVGID_3_" gradientUnits="userSpaceOnUse" x1="14.8117" y1="69.6579" x2="61.9079" y2="100.2425">
			<stop  offset="0" style="stop-color:#30C1D8"/>
			<stop  offset="1" style="stop-color:#0090B8"/>
		</linearGradient>
		<polygon fill="url(#SVGID_3_)" points="53.262,62.201 0,92.466 53.262,126.388 		"/>
		<linearGradient id="SVGID_4_" gradientUnits="userSpaceOnUse" x1="42.2918" y1="170.2583" x2="107.824" y2="104.7261">
			<stop  offset="0" style="stop-color:#D86E6A"/>
			<stop  offset="1" style="stop-color:#D64B8B"/>
		</linearGradient>
		<polygon fill="url(#SVGID_4_)" points="53.262,181.228 106.524,103.426 53.262,137.348 		"/>
		<linearGradient id="SVGID_5_" gradientUnits="userSpaceOnUse" x1="37.7116" y1="15.5502" x2="110.5754" y2="88.4141">
			<stop  offset="0" style="stop-color:#9EB454"/>
			<stop  offset="1" style="stop-color:#519157"/>
		</linearGradient>
		<polygon fill="url(#SVGID_5_)" points="53.262,62.201 106.524,92.466 53.262,0 53.262,62.032 		"/>
		<linearGradient id="SVGID_6_" gradientUnits="userSpaceOnUse" x1="39.5898" y1="83.254" x2="90.8767" y2="116.5601">
			<stop  offset="0" style="stop-color:#057597"/>
			<stop  offset="1" style="stop-color:#07567D"/>
		</linearGradient>
		<polygon fill="url(#SVGID_6_)" points="53.262,126.388 106.524,92.466 53.262,62.201 		"/>
	</g>
</g>
<g>
</g>
<g>
</g>
<g>
</g>
<g>
</g>
<g>
</g>
<g>
</g>
</svg>
