<?xml version="1.0" encoding="UTF-8" standalone="no"?>
<!-- Generator: Adobe Illustrator 25.0.0, SVG Export Plug-In . SVG Version: 6.00 Build 0)  -->

<svg
   version="1.1"
   id="Layer_1"
   x="0px"
   y="0px"
   width="199.666px"
   height="261.398px"
   viewBox="0 0 199.666 261.398"
   enable-background="new 0 0 199.666 261.398"
   xml:space="preserve"
   sodipodi:docname="fellowship-program-logo-vertical.svg"
   inkscape:version="1.2.2 (b0a8486541, 2022-12-01)"
   xmlns:inkscape="http://www.inkscape.org/namespaces/inkscape"
   xmlns:sodipodi="http://sodipodi.sourceforge.net/DTD/sodipodi-0.dtd"
   xmlns="http://www.w3.org/2000/svg"
   xmlns:svg="http://www.w3.org/2000/svg"><defs
   id="defs7276" /><sodipodi:namedview
   id="namedview7274"
   pagecolor="#ffffff"
   bordercolor="#999999"
   borderopacity="1"
   inkscape:showpageshadow="0"
   inkscape:pageopacity="0"
   inkscape:pagecheckerboard="0"
   inkscape:deskcolor="#d1d1d1"
   showgrid="false"
   inkscape:zoom="3.8255838"
   inkscape:cx="82.86317"
   inkscape:cy="130.9604"
   inkscape:window-width="3840"
   inkscape:window-height="2079"
   inkscape:window-x="0"
   inkscape:window-y="0"
   inkscape:window-maximized="1"
   inkscape:current-layer="g7213" />
<g
   id="g7259">
	<g
   id="g7213">
		
		
		
		
		
		
		
		
		
		
		
		
		
		
		
		
		
	<g
   aria-label="next billion
fellowship"
   transform="scale(0.98683069,1.0133451)"
   id="text7280"
   style="font-weight:bold;font-size:28.7093px;font-family:'DejaVu Sans Mono';-inkscape-font-specification:'DejaVu Sans Mono Bold';text-align:center;text-anchor:middle;fill:#37374d;stroke-width:0"><path
     d="m 12.201316,205.90587 v 10.19124 H 8.1220165 v -9.56042 q 0,-1.71023 -0.4906374,-2.43917 -0.4766192,-0.74297 -1.5700398,-0.74297 -1.1074388,0 -1.7522765,0.99529 -0.6308196,0.9953 -0.6308196,2.76159 v 8.98568 h -4.07929982 v -15.7004 H 3.6782432 v 2.35506 q 0.4345646,-1.3037 1.4859305,-2.01862 1.051366,-0.71493 2.5372965,-0.71493 2.2288958,0 3.3643708,1.48593 1.135475,1.47191 1.135475,4.40172 z"
     id="path3677" /><path
     d="m 29.920337,215.32611 q -1.429857,0.58876 -2.915788,0.88314 -1.485931,0.29439 -3.14008,0.29439 -3.939117,0 -6.027831,-2.10274 -2.074695,-2.11675 -2.074695,-6.0839 0,-3.84099 2.004604,-6.06989 2.004604,-2.22889 5.467103,-2.22889 3.490535,0 5.41103,2.07469 1.934513,2.06068 1.934513,5.81756 v 1.66817 H 19.93937 q 0.01402,1.8504 1.093421,2.76159 1.079402,0.91118 3.224188,0.91118 1.41584,0 2.789625,-0.40653 1.373784,-0.40653 2.873733,-1.28967 z m -3.476516,-8.83148 q -0.02804,-1.62611 -0.841093,-2.45319 -0.799038,-0.84109 -2.369078,-0.84109 -1.41584,0 -2.256932,0.86913 -0.841093,0.85511 -0.995293,2.43917 z"
     id="path3679" /><path
     d="m 47.807577,200.39671 -5.284866,7.51376 5.747467,8.18664 h -4.794229 l -3.084007,-5.28487 -3.069988,5.28487 h -4.794229 l 5.80354,-8.18664 -5.340939,-7.51376 h 4.794229 l 2.607387,4.68208 2.621406,-4.68208 z"
     id="path3681" /><path
     d="m 58.713748,195.93892 v 4.45779 h 5.368975 v 3.1541 h -5.368975 v 7.42965 q 0,1.05137 0.504656,1.51397 0.518674,0.44858 1.710222,0.44858 h 3.154097 v 3.1541 h -3.44848 q -3.532589,0 -4.78021,-1.12146 -1.247621,-1.13548 -1.247621,-4.19145 v -7.23339 h -4.009209 v -3.1541 h 4.009209 v -4.45779 z"
     id="path3683" /><path
     d="m 95.525571,208.28896 q 0,-2.27095 -0.756984,-3.56062 -0.756983,-1.28968 -2.088713,-1.28968 -1.331731,0 -2.102732,1.28968 -0.771002,1.28967 -0.771002,3.56062 0,2.27095 0.771002,3.56063 0.771001,1.28967 2.102732,1.28967 1.33173,0 2.088713,-1.28967 0.756984,-1.28968 0.756984,-3.56063 z M 89.80614,202.6256 q 0.756984,-1.30369 1.752277,-1.94853 1.009311,-0.65885 2.27095,-0.65885 2.789624,0 4.289573,2.13077 1.513967,2.13076 1.513967,6.11194 0,3.9251 -1.48593,6.0839 -1.485931,2.15881 -4.177428,2.15881 -1.415839,0 -2.467205,-0.6869 -1.051366,-0.68689 -1.696204,-2.04666 v 2.32703 h -4.093318 v -21.81234 h 4.093318 z"
     id="path3685" /><path
     d="m 103.99258,200.39671 h 8.13056 v 12.5463 h 5.10263 v 3.1541 h -14.32661 v -3.1541 h 5.11664 v -9.3922 h -4.02322 z m 4.02322,-7.63993 h 4.10734 v 4.79423 h -4.10734 z"
     id="path3687" /><path
     d="m 123.60405,209.5506 v -12.11173 h -4.1634 v -3.1541 h 8.27074 v 15.26583 q 0,1.85041 0.57475,2.62141 0.57474,0.771 1.94853,0.771 h 3.28026 v 3.1541 h -4.42975 q -2.92981,0 -4.20547,-1.51397 -1.27566,-1.51397 -1.27566,-5.03254 z"
     id="path3689" /><path
     d="m 140.88851,209.5506 v -12.11173 h -4.16341 v -3.1541 h 8.27075 v 15.26583 q 0,1.85041 0.57474,2.62141 0.57475,0.771 1.94853,0.771 h 3.28027 v 3.1541 h -4.42976 q -2.92981,0 -4.20546,-1.51397 -1.27566,-1.51397 -1.27566,-5.03254 z"
     id="path3691" /><path
     d="m 155.84594,200.39671 h 8.13056 v 12.5463 h 5.10263 v 3.1541 h -14.32661 v -3.1541 h 5.11665 v -9.3922 h -4.02323 z m 4.02323,-7.63993 h 4.10733 v 4.79423 h -4.10733 z"
     id="path3693" /><path
     d="m 178.66759,203.35455 q -1.47191,0 -2.31301,1.3037 -0.84109,1.28967 -0.84109,3.60268 0,2.313 0.84109,3.61669 0.8411,1.28968 2.31301,1.28968 1.48593,0 2.32702,-1.28968 0.84109,-1.30369 0.84109,-3.61669 0,-2.31301 -0.84109,-3.60268 -0.84109,-1.3037 -2.32702,-1.3037 z m -7.26144,4.90638 q 0,-3.79894 1.96255,-6.01382 1.97657,-2.22889 5.29889,-2.22889 3.33633,0 5.29888,2.22889 1.97657,2.21488 1.97657,6.01382 0,3.79893 -1.97657,6.02783 -1.96255,2.21488 -5.29888,2.21488 -3.32232,0 -5.29889,-2.21488 -1.96255,-2.2289 -1.96255,-6.02783 z"
     id="path3695" /><path
     d="m 202.33033,205.90587 v 10.19124 h -4.0793 v -9.56042 q 0,-1.71023 -0.49064,-2.43917 -0.47662,-0.74297 -1.57004,-0.74297 -1.10744,0 -1.75227,0.99529 -0.63082,0.9953 -0.63082,2.76159 v 8.98568 h -4.0793 v -15.7004 h 4.0793 v 2.35506 q 0.43456,-1.3037 1.48593,-2.01862 1.05136,-0.71493 2.53729,-0.71493 2.2289,0 3.36437,1.48593 1.13548,1.47191 1.13548,4.40172 z"
     id="path3697" /><path
     d="m 24.831726,234.90955 v 1.37378 h 4.822265 v 3.1541 h -4.822265 v 12.5463 H 20.72439 v -12.5463 h -3.812954 v -3.1541 h 3.812954 v -1.09342 q 0,-2.83168 1.177529,-3.9251 1.17753,-1.09342 4.373683,-1.09342 h 3.378389 v 3.1541 H 26.44382 q -0.925202,0 -1.261639,0.33644 -0.322419,0.33643 -0.350455,1.24762 z"
     id="path3699" /><path
     d="m 47.204793,251.21273 q -1.429858,0.58876 -2.915788,0.88315 -1.485931,0.29438 -3.14008,0.29438 -3.939117,0 -6.027831,-2.10273 -2.074695,-2.11675 -2.074695,-6.08391 0,-3.84099 2.004604,-6.06988 2.004604,-2.2289 5.467103,-2.2289 3.490535,0 5.41103,2.0747 1.934513,2.06067 1.934513,5.81755 v 1.66817 H 37.223826 q 0.01402,1.85041 1.09342,2.76159 1.079403,0.91118 3.224189,0.91118 1.41584,0 2.789625,-0.40652 1.373784,-0.40653 2.873733,-1.28968 z m -3.476517,-8.83147 q -0.02804,-1.62612 -0.841092,-2.45319 -0.799038,-0.84109 -2.369078,-0.84109 -1.41584,0 -2.256932,0.86912 -0.841093,0.85512 -0.995293,2.43917 z"
     id="path3701" /><path
     d="m 54.466228,245.43723 v -12.11174 h -4.16341 v -3.1541 h 8.270746 v 15.26584 q 0,1.8504 0.574746,2.6214 0.574747,0.771 1.948532,0.771 h 3.280262 v 3.1541 h -4.429755 q -2.929807,0 -4.205464,-1.51397 -1.275657,-1.51396 -1.275657,-5.03253 z"
     id="path3703" /><path
     d="m 71.750686,245.43723 v -12.11174 h -4.163409 v -3.1541 h 8.270745 v 15.26584 q 0,1.8504 0.574747,2.6214 0.574746,0.771 1.948531,0.771 h 3.280262 v 3.1541 h -4.429755 q -2.929807,0 -4.205464,-1.51397 -1.275657,-1.51396 -1.275657,-5.03253 z"
     id="path3705" /><path
     d="m 92.245311,239.24118 q -1.471913,0 -2.313005,1.30369 -0.841093,1.28967 -0.841093,3.60268 0,2.31301 0.841093,3.6167 0.841092,1.28967 2.313005,1.28967 1.48593,0 2.327023,-1.28967 0.841093,-1.30369 0.841093,-3.6167 0,-2.31301 -0.841093,-3.60268 -0.841093,-1.30369 -2.327023,-1.30369 z m -7.261434,4.90637 q 0,-3.79894 1.962549,-6.01381 1.976568,-2.2289 5.298885,-2.2289 3.336334,0 5.298884,2.2289 1.976568,2.21487 1.976568,6.01381 0,3.79894 -1.976568,6.02783 -1.96255,2.21488 -5.298884,2.21488 -3.322317,0 -5.298885,-2.21488 -1.962549,-2.22889 -1.962549,-6.02783 z"
     id="path3707" /><path
     d="m 100.89455,236.28333 h 3.42044 l 1.86442,12.02763 1.69621,-7.92029 h 3.32231 l 1.66817,7.92029 1.89246,-12.02763 h 3.42044 l -2.8457,15.7004 h -3.89706 l -1.90647,-8.1586 -1.89246,8.1586 h -3.89707 z"
     id="path3709" /><path
     d="m 132.07106,236.77397 v 3.58866 q -1.13548,-0.72894 -2.36908,-1.09342 -1.21959,-0.37849 -2.45319,-0.37849 -1.37378,0 -2.07469,0.40653 -0.70091,0.39251 -0.70091,1.17753 0,1.12146 2.99989,1.82237 l 0.1542,0.0421 1.17753,0.28036 q 2.24292,0.5327 3.28026,1.72425 1.05137,1.17752 1.05137,3.19615 0,2.42515 -1.59808,3.64473 -1.58405,1.20557 -4.78021,1.20557 -1.41584,0 -2.90177,-0.25233 -1.48593,-0.23831 -3.01391,-0.72895 v -3.58866 q 1.35977,0.771 2.76159,1.17753 1.41584,0.40653 2.73355,0.40653 1.44387,0 2.18684,-0.42055 0.74296,-0.42054 0.74296,-1.21958 0,-0.78502 -0.53269,-1.20557 -0.51867,-0.42054 -2.49524,-0.89716 l -1.13547,-0.25233 q -2.35506,-0.53269 -3.43447,-1.66817 -1.0794,-1.13547 -1.0794,-3.04195 0,-2.27095 1.64013,-3.53259 1.64013,-1.26164 4.61199,-1.26164 1.33173,0 2.64945,0.22429 1.33173,0.21028 2.57935,0.64484 z"
     id="path3711" /><path
     d="m 150.47697,241.79249 v 10.19124 h -4.0793 v -9.56042 q 0,-1.6962 -0.49064,-2.42515 -0.47662,-0.72895 -1.57004,-0.72895 -1.12146,0 -1.75228,0.9953 -0.63082,0.98127 -0.63082,2.73355 v 8.98567 h -4.07929 v -21.81234 h 4.07929 v 8.467 q 0.43457,-1.30369 1.48594,-2.01862 1.05136,-0.71493 2.53729,-0.71493 2.2289,0 3.36437,1.48593 1.13548,1.47191 1.13548,4.40172 z"
     id="path3713" /><path
     d="m 155.84594,236.28333 h 8.13056 v 12.5463 h 5.10263 v 3.1541 h -14.32661 v -3.1541 h 5.11665 v -9.3922 h -4.02323 z m 4.02323,-7.63992 h 4.10733 v 4.79423 h -4.10733 z"
     id="path3715" /><path
     d="m 176.22842,249.76885 v 8.18664 h -4.09332 v -21.67216 h 4.09332 v 2.35506 q 0.64484,-1.35976 1.6962,-2.04666 1.05137,-0.68689 2.46721,-0.68689 2.6915,0 4.17743,2.15881 1.48593,2.1588 1.48593,6.0839 0,3.98117 -1.51397,6.11194 -1.49995,2.13077 -4.28957,2.13077 -1.26164,0 -2.27095,-0.64484 -0.9953,-0.65885 -1.75228,-1.97657 z m 5.71943,-5.64934 q 0,-2.27095 -0.75698,-3.56062 -0.75699,-1.28968 -2.08872,-1.28968 -1.33173,0 -2.10273,1.28968 -0.771,1.28967 -0.771,3.56062 0,2.27095 0.771,3.56063 0.771,1.28968 2.10273,1.28968 1.33173,0 2.08872,-1.28968 0.75698,-1.28968 0.75698,-3.56063 z"
     id="path3717" /></g></g>
	<g
   id="g7257">
		<linearGradient
   id="SVGID_1_"
   gradientUnits="userSpaceOnUse"
   x1="45.0729"
   y1="104.7261"
   x2="110.6051"
   y2="170.2583">
			<stop
   offset="0"
   style="stop-color:#F5B867"
   id="stop7215" />
			<stop
   offset="1"
   style="stop-color:#EA818A"
   id="stop7217" />
		</linearGradient>
		<polygon
   fill="url(#SVGID_1_)"
   points="46.373,103.426 99.635,181.228 99.635,137.348   "
   id="polygon7220" />
		<linearGradient
   id="SVGID_2_"
   gradientUnits="userSpaceOnUse"
   x1="63.2031"
   y1="36.4319"
   x2="92.9558"
   y2="66.1846">
			<stop
   offset="0"
   style="stop-color:#C6DC66"
   id="stop7222" />
			<stop
   offset="1"
   style="stop-color:#87C765"
   id="stop7224" />
		</linearGradient>
		<polygon
   fill="url(#SVGID_2_)"
   points="99.635,62.032 99.635,0 46.373,92.466 99.635,62.201   "
   id="polygon7227" />
		<linearGradient
   id="SVGID_3_"
   gradientUnits="userSpaceOnUse"
   x1="61.1849"
   y1="69.6579"
   x2="108.2811"
   y2="100.2425">
			<stop
   offset="0"
   style="stop-color:#30C1D8"
   id="stop7229" />
			<stop
   offset="1"
   style="stop-color:#0090B8"
   id="stop7231" />
		</linearGradient>
		<polygon
   fill="url(#SVGID_3_)"
   points="99.635,62.201 46.373,92.466 99.635,126.388   "
   id="polygon7234" />
		<linearGradient
   id="SVGID_4_"
   gradientUnits="userSpaceOnUse"
   x1="88.665"
   y1="170.2583"
   x2="154.1972"
   y2="104.7261">
			<stop
   offset="0"
   style="stop-color:#D86E6A"
   id="stop7236" />
			<stop
   offset="1"
   style="stop-color:#D64B8B"
   id="stop7238" />
		</linearGradient>
		<polygon
   fill="url(#SVGID_4_)"
   points="99.635,181.228 152.897,103.426 99.635,137.348   "
   id="polygon7241" />
		<linearGradient
   id="SVGID_5_"
   gradientUnits="userSpaceOnUse"
   x1="84.0848"
   y1="15.5502"
   x2="156.9487"
   y2="88.4141">
			<stop
   offset="0"
   style="stop-color:#9EB454"
   id="stop7243" />
			<stop
   offset="1"
   style="stop-color:#519157"
   id="stop7245" />
		</linearGradient>
		<polygon
   fill="url(#SVGID_5_)"
   points="99.635,62.201 152.897,92.466 99.635,0 99.635,62.032   "
   id="polygon7248" />
		<linearGradient
   id="SVGID_6_"
   gradientUnits="userSpaceOnUse"
   x1="85.963"
   y1="83.254"
   x2="137.2499"
   y2="116.5601">
			<stop
   offset="0"
   style="stop-color:#057597"
   id="stop7250" />
			<stop
   offset="1"
   style="stop-color:#07567D"
   id="stop7252" />
		</linearGradient>
		<polygon
   fill="url(#SVGID_6_)"
   points="99.635,126.388 152.897,92.466 99.635,62.201   "
   id="polygon7255" />
	</g>
</g>
<g
   id="g7261">
</g>
<g
   id="g7263">
</g>
<g
   id="g7265">
</g>
<g
   id="g7267">
</g>
<g
   id="g7269">
</g>
<g
   id="g7271">
</g>
</svg>
