<?xml version="1.0" encoding="UTF-8" standalone="no"?>
<!-- Generator: Adobe Illustrator 25.0.0, SVG Export Plug-In . SVG Version: 6.00 Build 0)  -->

<svg
   version="1.1"
   id="Layer_1"
   x="0px"
   y="0px"
   width="479.766px"
   height="181.228px"
   viewBox="0 0 479.766 181.228"
   enable-background="new 0 0 479.766 181.228"
   xml:space="preserve"
   sodipodi:docname="fellowship-program-logo.svg"
   inkscape:version="1.2.2 (b0a8486541, 2022-12-01)"
   xmlns:inkscape="http://www.inkscape.org/namespaces/inkscape"
   xmlns:sodipodi="http://sodipodi.sourceforge.net/DTD/sodipodi-0.dtd"
   xmlns="http://www.w3.org/2000/svg"
   xmlns:svg="http://www.w3.org/2000/svg"><defs
   id="defs251"><rect
     x="117.88933"
     y="34.986884"
     width="344.07039"
     height="112.36535"
     id="rect6483" /><rect
     x="131.03091"
     y="157.312"
     width="282.7194"
     height="23.916001"
     id="rect4978" /></defs><sodipodi:namedview
   id="namedview249"
   pagecolor="#ffffff"
   bordercolor="#999999"
   borderopacity="1"
   inkscape:showpageshadow="0"
   inkscape:pageopacity="0"
   inkscape:pagecheckerboard="0"
   inkscape:deskcolor="#d1d1d1"
   showgrid="false"
   inkscape:zoom="4.0894937"
   inkscape:cx="239.883"
   inkscape:cy="90.720277"
   inkscape:window-width="2560"
   inkscape:window-height="1359"
   inkscape:window-x="1920"
   inkscape:window-y="0"
   inkscape:window-maximized="1"
   inkscape:current-layer="g234" />
<g
   id="g234">
	
	<g
   id="g232">
		<linearGradient
   id="SVGID_1_"
   gradientUnits="userSpaceOnUse"
   x1="-1.3003"
   y1="104.7261"
   x2="64.2319"
   y2="170.2583">
			<stop
   offset="0"
   style="stop-color:#F5B867"
   id="stop190" />
			<stop
   offset="1"
   style="stop-color:#EA818A"
   id="stop192" />
		</linearGradient>
		<polygon
   fill="url(#SVGID_1_)"
   points="0,103.426 53.262,181.228 53.262,137.348   "
   id="polygon195" />
		<linearGradient
   id="SVGID_2_"
   gradientUnits="userSpaceOnUse"
   x1="16.8299"
   y1="36.4319"
   x2="46.5826"
   y2="66.1846">
			<stop
   offset="0"
   style="stop-color:#C6DC66"
   id="stop197" />
			<stop
   offset="1"
   style="stop-color:#87C765"
   id="stop199" />
		</linearGradient>
		<polygon
   fill="url(#SVGID_2_)"
   points="53.262,62.032 53.262,0 0,92.466 53.262,62.201   "
   id="polygon202" />
		<linearGradient
   id="SVGID_3_"
   gradientUnits="userSpaceOnUse"
   x1="14.8117"
   y1="69.6579"
   x2="61.9079"
   y2="100.2425">
			<stop
   offset="0"
   style="stop-color:#30C1D8"
   id="stop204" />
			<stop
   offset="1"
   style="stop-color:#0090B8"
   id="stop206" />
		</linearGradient>
		<polygon
   fill="url(#SVGID_3_)"
   points="53.262,62.201 0,92.466 53.262,126.388   "
   id="polygon209" />
		<linearGradient
   id="SVGID_4_"
   gradientUnits="userSpaceOnUse"
   x1="42.2918"
   y1="170.2583"
   x2="107.824"
   y2="104.7261">
			<stop
   offset="0"
   style="stop-color:#D86E6A"
   id="stop211" />
			<stop
   offset="1"
   style="stop-color:#D64B8B"
   id="stop213" />
		</linearGradient>
		<polygon
   fill="url(#SVGID_4_)"
   points="53.262,181.228 106.524,103.426 53.262,137.348   "
   id="polygon216" />
		<linearGradient
   id="SVGID_5_"
   gradientUnits="userSpaceOnUse"
   x1="37.7116"
   y1="15.5502"
   x2="110.5754"
   y2="88.4141">
			<stop
   offset="0"
   style="stop-color:#9EB454"
   id="stop218" />
			<stop
   offset="1"
   style="stop-color:#519157"
   id="stop220" />
		</linearGradient>
		<polygon
   fill="url(#SVGID_5_)"
   points="53.262,62.201 106.524,92.466 53.262,0 53.262,62.032   "
   id="polygon223" />
		<linearGradient
   id="SVGID_6_"
   gradientUnits="userSpaceOnUse"
   x1="39.5898"
   y1="83.254"
   x2="90.8767"
   y2="116.5601">
			<stop
   offset="0"
   style="stop-color:#057597"
   id="stop225" />
			<stop
   offset="1"
   style="stop-color:#07567D"
   id="stop227" />
		</linearGradient>
		<polygon
   fill="url(#SVGID_6_)"
   points="53.262,126.388 106.524,92.466 53.262,62.201   "
   id="polygon230" />
	</g>
<text
   xml:space="preserve"
   id="text6481"
   style="font-weight:bold;font-size:37.3333px;font-family:'DejaVu Sans Mono';-inkscape-font-specification:'DejaVu Sans Mono Bold';white-space:pre;shape-inside:url(#rect6483);fill:#37374d;fill-opacity:1;stroke-width:0"
   transform="translate(15.397808,14.236596)"><tspan
     x="117.88867"
     y="68.01755"
     id="tspan6528">next billion
</tspan><tspan
     x="117.88867"
     y="114.68418"
     id="tspan6530">fellowship
</tspan></text></g>
<g
   id="g236">
</g>
<g
   id="g238">
</g>
<g
   id="g240">
</g>
<g
   id="g242">
</g>
<g
   id="g244">
</g>
<g
   id="g246">
</g>
<path
   style="fill:#000000;fill-opacity:0;stroke-width:0"
   d="m 145.98384,73.725508 v -8.92531 h -3.66793 -3.66794 V 61.62132 58.442442 h 3.66794 3.66793 v -2.890788 c 0,-3.434384 0.34237,-4.665364 1.73877,-6.251756 1.96645,-2.234012 4.27693,-2.834625 10.91561,-2.837532 l 4.21813,-0.0018 v 3.162776 3.162776 l -4.15085,0.07723 c -5.23481,0.0974 -5.22059,0.0884 -5.34899,3.384903 l -0.0855,2.194234 h 5.52624 5.52623 v 3.178878 3.178878 h -5.5019 -5.50191 v 8.92531 8.92531 h -3.66793 -3.66794 z"
   id="path2489" /><path
   style="fill:#000000;fill-opacity:0;stroke-width:0"
   d="m 145.98384,73.725508 v -8.92531 h -3.66793 -3.66794 V 61.62132 58.442442 h 3.66794 3.66793 v -2.890788 c 0,-3.434384 0.34237,-4.665364 1.73877,-6.251756 1.96645,-2.234012 4.27693,-2.834625 10.91561,-2.837532 l 4.21813,-0.0018 v 3.162776 3.162776 l -4.15085,0.07723 c -5.23481,0.0974 -5.22059,0.0884 -5.34899,3.384903 l -0.0855,2.194234 h 5.52624 5.52623 v 3.178878 3.178878 h -5.5019 -5.50191 v 8.92531 8.92531 h -3.66793 -3.66794 z"
   id="path2491" /></svg>
